<svg xmlns="http://www.w3.org/2000/svg" viewBox="0 0 1000 519"><defs><style>.cls-1{fill:none;}.cls-2{fill:#fff;}.cls-3{fill:#fbe6b9;}.cls-4{fill:#a6435f;}.cls-5{fill:#6f3366;}.cls-6{fill:#e95b75;}.cls-7{fill:#f1aa58;}.cls-8{fill:#f4ad51;}.cls-9{fill:#fbe7b4;}.cls-10{fill:#a763ae;}.cls-11{fill:#9e62a0;}.cls-12{fill:#fddde8;}.cls-13{fill:#c79dc5;}.cls-14{fill:#f1a083;}.cls-15{fill:#c4c5e3;}.cls-16{fill:#ffcf84;}.cls-17{fill:#fffffb;}.cls-18{fill:#d4e7f6;}.cls-19{fill:#e75b80;}.cls-20{fill:#a44469;}.cls-21{fill:#2ca8e4;}.cls-22{fill:#d489c1;}.cls-23{fill:#aa6498;}.cls-24{fill:#a971ae;}.cls-25{fill:#d3e8ed;}.cls-26{fill:#ab3e5e;}.cls-27{fill:#efaa4d;}.cls-28{fill:#81c592;}.cls-29{fill:#692b5e;}.cls-30{fill:#ec90a5;}.cls-31{fill:#e5556e;}.cls-32{fill:#90425a;}.cls-33{fill:#d5e9f2;}.cls-34{fill:#f6ac55;}.cls-35{fill:#f8d287;}.cls-36{fill:#fce6b5;}.cls-37{fill:#a160a2;}.cls-38{fill:#cf9ac8;}.cls-39{fill:#743d67;}.cls-40{fill:#face91;}.cls-41{fill:#eb7186;}.cls-42{fill:#a04568;}.cls-43{fill:#f296ab;}.cls-44{fill:#f9b8cc;}.cls-45{fill:#eeb063;}.cls-46{fill:#efb5ce;}.cls-47{fill:#6c2f59;}.cls-48{fill:#ffd08b;}.cls-49{fill:#facf8a;}.cls-50{fill:#ba5179;}.cls-51{fill:#713865;}.cls-52{fill:#eb7363;}.cls-53{fill:#fbe6b7;}.cls-54{fill:#fdad58;}.cls-55{fill:#fefefe;}.cls-56{fill:#f4b156;}.cls-57{fill:#f06b5c;}.cls-58{fill:#4f3461;}.cls-59{fill:#f86f65;}.cls-60{fill:#813758;}.cls-61{fill:#6f3d72;}.cls-62{fill:#ffe6ba;}.cls-63{fill:#e7b1c9;}.cls-64{fill:#04b8b9;}.cls-65{fill:#d88cba;}.cls-66{fill:#f5ced3;}.cls-67{fill:#e9b0c1;}.cls-68{fill:#ea74a8;}.cls-69{fill:#cec2da;}.cls-70{fill:#e9705d;}.cls-71{fill:#74315d;}.cls-72{fill:#a361a1;}.cls-73{fill:#d5919e;}.cls-74{fill:#f0b7be;}.cls-75{fill:#e6a178;}.cls-76{fill:#6d3461;}.cls-77{fill:#ad4566;}.cls-78{fill:#a1435d;}.cls-79{fill:#a9405f;}.cls-80{fill:#763764;}.cls-81{fill:#6d2950;}.cls-82{fill:#602950;}.cls-83{fill:#f5a17f;}.cls-84{fill:#fbd290;}.cls-85{fill:#733b68;}.cls-86{fill:#20193b;}.cls-87{fill:#8c5a95;}.cls-88{fill:#713a61;}.cls-89{fill:#b8bed6;}.cls-90{fill:#7d72ac;}.cls-91{fill:#fdfeff;}.cls-92{fill:#5e99ab;}.cls-93{fill:#19787e;}.cls-94{fill:#d3c4db;}.cls-95{fill:#6d67a3;}.cls-96{fill:#fff8ff;}.cls-97{fill:#438f9d;}.cls-98{fill:#d1e7f5;}.cls-99{fill:#c5c6e4;}.cls-100{fill:#03abf4;}.cls-101{fill:#a163a4;}.cls-102{fill:#04acea;}.cls-103{fill:#6e335f;}.cls-104{fill:#cee6f2;}.cls-105{fill:#c6c1e9;}.cls-106{fill:#0db1f8;}.cls-107{fill:#c8c7e6;}.cls-108{fill:#8bc998;}.cls-109{fill:#ea5c74;}.cls-110{fill:#e65e76;}.cls-111{fill:#b9c2df;}.cls-112{fill:#281940;}.cls-113{fill:#1f1a3a;}.cls-114{fill:#1f193d;}.cls-115{fill:#fcfdff;}.cls-116{fill:#06ace8;}.cls-117{fill:#d7edfa;}.cls-118{fill:#efb6c5;}</style></defs><g id="Layer_3" data-name="Layer 3"><rect class="cls-1" width="1000" height="519"/><path class="cls-2" d="M324,29V68l5,8v62.75l4,4.25-12,55,3,23,9,35,25,60,31,21,8,20c-1.81-.38-38.05,30.46-38,32q-.5,17-1,34l15,21-12-29,7-32,32.82-22,.18-20-38-33q-3.5-19-7-38l38,26v29l17,14,235.2-87.67L663,258l9-19V203.5L702,285l-6,7-26-7-7-3-12,3-2,4,13-3,28,9,17-2,5-27-40-88,2-84L659,47l-2.09-18Z" transform="translate(0 -29)"/><polygon class="cls-2" points="397 324 384 337 373 339 361.18 357.54 382.19 345.19 399 331 397 324"/></g><g id="Layer_2" data-name="Layer 2"><path class="cls-2" d="M315,548l94-164,10-69-20-61-14,23-41-49,32-88,55-97,95-2,90-3,30,99,3,28v25q1,12.5,2,25-2.5,20-5,40-7,24.5-14,49l-11,32-14,23-12,23-21,17q-.5,16.5-1,33l44,24,14,25,4,67Z" transform="translate(0 -29)"/><path class="cls-2" d="M426,178" transform="translate(0 -29)"/><path class="cls-3" d="M363,264V248h34v18l-5,15-12,1-13-7Q365,269.5,363,264Z" transform="translate(0 -29)"/><path class="cls-4" d="M428,178l-29,32v34H380l-4-5H360l-7,18-9-29,3-27,16,4,19,19,12,3-9-38,32-16V147l37-27-5,13-22,16Q427.5,163.51,428,178Z" transform="translate(0 -29)"/><path class="cls-5" d="M394,240l-21-18h-6v11l-4,4-6-4-14,12q.5-8.5,1-17l3-27,16,4,19,22h12Z" transform="translate(0 -29)"/><path class="cls-6" d="M353,251l10,13V248h34v23q1,6,2,12l13,27,58,59,44,25-7-37-15-36H462l-19-45h-7l-12-33q1-15,2-30l15-3,23-12-5-12-28,6-4-5q-.5-6-1-12l-16,15-7.36,16L399,210v34l-17.55.06L376,239H360Z" transform="translate(0 -29)"/><polygon class="cls-7" points="466 94 456 131 456 151 431 163 426 160 426 119 461 94 466 94"/><path class="cls-8" d="M441,210H424v35s5,31,12,31h7l19,45,28.47-.09L507,362l7,32,9,4h45l20-19V365l-74,1-3-22-11-65-24-41H464l-8-15s-15,13-15,0Z" transform="translate(0 -29)"/><path class="cls-9" d="M564,208H537l-10,14-13,26-5-6-6,15,14,19h13v10l13,6s30,6,34,0l4-6s1-2,0-8l-1-6Z" transform="translate(0 -29)"/><path class="cls-10" d="M456,197H441v26h16Z" transform="translate(0 -29)"/><path class="cls-11" d="M461,215h9l8,23H464Z" transform="translate(0 -29)"/><path class="cls-12" d="M509,242l-6,15,16,19H496l-7-19Z" transform="translate(0 -29)"/><path class="cls-12" d="M480,231h10l21-9h6l2,6-20,10H482Z" transform="translate(0 -29)"/><polygon class="cls-13" points="490.98 227.32 520 204 520 193 517 193 517 198 500 208.33 483.15 208.77 490.98 227.32"/><polygon class="cls-14" points="487 201 487 207 496 207 500 201 497.62 198.89 487 201"/><polygon class="cls-15" points="496.77 247 527 247 530 259 509 276 496.77 247"/><polygon class="cls-16" points="546 243 540 237 527 247 526 257 533 263 543 263 531 252 538 243 546 243"/><polygon class="cls-17" points="551 189 558 228 567 228 557 189 551 189"/><polygon class="cls-17" points="562 243 563 252 573 252 571 243 562 243"/><path class="cls-18" d="M526,291.24,509,305c-.79,2.24-4.6,13.26-2.13,14.7a2,2,0,0,0,1.13.3h5l9,14,11-5,6-5v-7H526Z" transform="translate(0 -29)"/><polygon class="cls-19" points="533 263 557 263 564 269 572 269 572 281 562 281 557 272 541 272 533 263"/><path class="cls-20" d="M549,299H539l-2.06-2.34L549,292h8a4.8,4.8,0,0,1,4-1c2.08.6,3.57,3.16,3,6H550Z" transform="translate(0 -29)"/><path class="cls-21" d="M551,289l-4,3h11l3,7h15l9-8V281l-7.21,13.67H566L562,289Z" transform="translate(0 -29)"/><polygon class="cls-22" points="524.43 304.43 512 289 512 320 512 337 546 336.57 517 310 524.43 304.43"/><polygon class="cls-23" points="528 305 512 305 512.17 311.57 523 312 528 305"/><path class="cls-24" d="M533,355l13,11h2.94S551,355,542,355Z" transform="translate(0 -29)"/><path class="cls-25" d="M567,315l2,6-3,3-9-4-10-19,10-2Z" transform="translate(0 -29)"/><path class="cls-25" d="M569,313l4,7h12l-8-12h-8Z" transform="translate(0 -29)"/><polygon class="cls-26" points="580.88 265.67 576 270 572 270 571.5 279 577.5 281 589 281 580.88 265.67"/><path class="cls-27" d="M539,299h10l2-2h7l6,9h13v4h-5l-4,8h-7l-7.21-17.26L541,301Z" transform="translate(0 -29)"/><path class="cls-28" d="M589,237v37l-4.06,8.62L585,291h4l5-4,9,40h3l13-30-18,4Z" transform="translate(0 -29)"/><polygon class="cls-29" points="578.25 268 580 276 589 281 597.45 273.33 594 258 585 262 578.25 268"/><path class="cls-30" d="M577,310l4,12,22,5-6-28-7,10.09Z" transform="translate(0 -29)"/><path class="cls-31" d="M567,220l13.25,41.45,9-1.3L589,242V230l51-2-34,99-5,6,8,8,10-11,15-29,14-57,4-4-5-39-7-9-30,22H572Z" transform="translate(0 -29)"/><polygon class="cls-32" points="589 242.5 583.66 231.91 589 230 589 242.5"/><path class="cls-33" d="M580,261q2.47,8.25,4.94,16.51L578,295l12-22-6-12Z" transform="translate(0 -29)"/><polygon class="cls-34" points="585 194 589 215 632 215 632.16 221.83 614 272 620 272 643 211 647 207 643 186 610 198 591 198 585 194"/><path class="cls-35" d="M601,301l-12-59h44v9l-19,50Z" transform="translate(0 -29)"/><polygon class="cls-36" points="602 249 622.33 249 633 222 633 213 602 213 602 249"/><path class="cls-37" d="M571.5,365.22,592,342s22-4,21-1-2,3-2,3,8-18-4,10l-12,28-31,20H533l-10-4h45l20-19V365Z" transform="translate(0 -29)"/><path class="cls-38" d="M602,333l8-2v7l9-8-14.79,30.5L599,361l3-19-10,10-2-11Z" transform="translate(0 -29)"/><polygon class="cls-39" points="544 330 549 337 572 337 577 329.99 544 330"/><polygon class="cls-40" points="519 333 519 356 529 363 567 363 578 346 578.25 336.13 536 336.69 532 333 519 333"/><polygon class="cls-36" points="539 341 539 360 568.94 360 573 353.73 573 341 539 341"/><path class="cls-41" d="M516,338l39-16h3l8,4,9-6,6.44.44L599,331l-7,13-14,15-1.74.81L558,360l-17-2Z" transform="translate(0 -29)"/><path class="cls-42" d="M545,331h11v-2h11l2,2,6-7h7l-3.75-3.76L606,327v5l-14.09,12.83L592,338l5.45-4.12L597,331H580s-14,2-14,8v6h-4v-4l-7-3H536l-8,3h-8.82L516,338l10-4h5l14-6Z" transform="translate(0 -29)"/><polygon class="cls-43" points="536 316 539 319 562 319 562 312 556 309 536 309 536 316"/><path class="cls-43" d="M583,334l-15,7-2,4v4h17Z" transform="translate(0 -29)"/><path class="cls-44" d="M549,338v5H536v-5Z" transform="translate(0 -29)"/><path class="cls-45" d="M517.53,340.74,526,341v4l18,12h25v2.88c-1.36.7-23.54.62-25,.12-4.22-1.45-7.63-2.91-10-4l-16-13Z" transform="translate(0 -29)"/><rect class="cls-46" x="566" y="310" width="5" height="5"/><path class="cls-47" d="M528,339l10-5h31l17-7h20l-1,4-7.55.89L597,331H584l-15,7h-7l-4-2H540l-11,4.74s-7.63.26-9.82.26H518l-.23-2.58Z" transform="translate(0 -29)"/><polygon class="cls-48" points="527 193 540 193 541 181 528 183 527 193"/><path class="cls-49" d="M522,104h42l-23,78v28h22.78L585,160l-1-69s-6-37-34-12Z" transform="translate(0 -29)"/><polygon class="cls-50" points="470 172 492 172 514 186 521 182 521 169 470 153 462 158 470 172"/><path class="cls-51" d="M513,187s-5-4,6-4,12,2,12,2l7,11v5l-18-1Z" transform="translate(0 -29)"/><path class="cls-52" d="M520,211.57,534,218V199H520Z" transform="translate(0 -29)"/><path class="cls-52" d="M514,209l7,2c-.33,2.33-.67,4.67-1,7l-6-4Z" transform="translate(0 -29)"/><polygon class="cls-53" points="474 148 495 153 552 153 564 153 564 75 527 75 527 108 486 108 485 95 476 106 474 148"/><path class="cls-54" d="M534,218l7-8V182l-53-1,26,6h14l6,6Z" transform="translate(0 -29)"/><rect class="cls-55" x="482" y="121" width="27" height="23"/><path class="cls-56" d="M520,211v7l7,4,2.64-6Z" transform="translate(0 -29)"/><path class="cls-57" d="M464,188h19s6-2,6,4v7H468Z" transform="translate(0 -29)"/><polygon class="cls-58" points="471 178 483 173 470 173 471 178"/><path class="cls-59" d="M459,189s-4,26-1,25,3,0,3,0,11,3,9-4S459,189,459,189Z" transform="translate(0 -29)"/><path class="cls-60" d="M459,199s-3,13,0,13h3l6-2-4-12Z" transform="translate(0 -29)"/><polygon class="cls-61" points="459 178 466 175.5 467 181 459 185 459 178"/><path class="cls-62" d="M481,111l-11,24s-5,58-7,45-2-12-2-12l1-25Z" transform="translate(0 -29)"/><path class="cls-63" d="M525,90,509,29h45q6.5,25,13,50s37,11,10,11H550l-5-5v7l-24,12H502l-25.83,32.32L474,177H462.83L470,135l13-29Z" transform="translate(0 -29)"/><path class="cls-64" d="M585,171l1,15,45-20,20-7s-20-28-26-28h-6Z" transform="translate(0 -29)"/><polygon class="cls-65" points="605 99 601 132 601 140 621 130 621 103 605 99"/><path class="cls-66" d="M584,156v22l17-9v-8Z" transform="translate(0 -29)"/><polygon class="cls-67" points="580 65 580 117 573 125 573 148 585 148 584.94 132.5 609 132 610 117 606 114 606 97 580 65"/><path class="cls-68" d="M573,177v5h-9v28l3,11a30.47,30.47,0,0,0,3-6,32.08,32.08,0,0,0,1-18l11-12,4,1v-9Z" transform="translate(0 -29)"/><path class="cls-69" d="M566,217q9.5,29.5,19,59v5l-7,14-16-.48L558,289h18l5-11Z" transform="translate(0 -29)"/><path class="cls-70" d="M591,185c-.33,3-.67,6-1,9l21-4,16-4h12l2-3-21-9Z" transform="translate(0 -29)"/><path class="cls-71" d="M611,170l-24,12-1.17,2.83L584,182l-6,5,5,5,8.44-3-.44-6,18-9Z" transform="translate(0 -29)"/><path class="cls-72" d="M568.72,196.19,578,187l5,5,8-3,2,6-15,16-9,3Z" transform="translate(0 -29)"/><path class="cls-73" d="M583,216v12l3-.11L585,223l6,4h18V216Z" transform="translate(0 -29)"/><polygon class="cls-74" points="583 187 590 191 609 191 605 187 583 187"/><polygon class="cls-75" points="609 186 610 193 617 193 617 186 609 186"/><polygon class="cls-76" points="569 185 568.34 195.15 576 195 576 187 583 187 583 183 574 177 569 185"/><polygon class="cls-77" points="573 185 573 192 569 185 573 185"/><polygon class="cls-77" points="627 174 635 174 635 183 625 189 623 184 619 183 627 174"/><polygon class="cls-78" points="627 165 639 162 646 162 647 172 637 172 627 165"/><path class="cls-79" d="M615,186h24c.33,1.67.67,3.33,1,5l-10,5-17-5Z" transform="translate(0 -29)"/><polygon class="cls-80" points="623 169 639 169 635 175.5 628.85 174.04 632 177 632 180 618 185 618 189 614 187 611 187 610 191 605 187 605 185 611 184.5 623 169"/><path class="cls-81" d="M456,180l-25,12,3,3,23-6C456.67,186,456.33,183,456,180Z" transform="translate(0 -29)"/><path class="cls-82" d="M478,226h25l-4,5.5-3.75-2.75L493,234s-1-3-3-3H478Z" transform="translate(0 -29)"/><path class="cls-82" d="M513,215l-2,7h6s6,0,1-4l-5-4Z" transform="translate(0 -29)"/><polygon class="cls-83" points="619 144 619 154 642 155 649 144 641 140 619 144"/><polygon class="cls-84" points="441 194 457 194 470 232 441 232 433 219 433 199 441 194"/><polygon class="cls-85" points="460 148 474 148 498 154 490.5 159.43 460 154 460 148"/><path class="cls-86" d="M515,187l6,5v7.82L481,189H464.36L462,181h15l14,6,3-5Z" transform="translate(0 -29)"/><polyline class="cls-87" points="556 373 574.5 373 573 394.89 564 395 556 373"/></g><g id="Layer_8" data-name="Layer 8"><polygon class="cls-88" points="461 186 473 189 471 182.5 461 186"/><polyline class="cls-89" points="477.69 193 489 193 499 183 501 181 508 186 508 193 494 198 478 198 477.69 193"/><polygon class="cls-90" points="495.5 174.5 511 185 511 193 507 194 507 186 500 183 494.5 187.5 495 178 492 175 495.5 174.5"/><polyline class="cls-91" points="500 198 511 193 507 193 492 198 500 198"/><polygon class="cls-92" points="473 181 476.5 193 488.57 193 494.53 187 495 179 489 176 473 181"/><polygon class="cls-93" points="475 183 483 183 479 187 479 191 489 191 493 188 493 182 489 181 487 176 494 179 494 187 489 192.57 476.5 193 473 184 475 183"/><path class="cls-94" d="M583,206l8-3,6,7h9l6-9,4-4,7,2-.55,5.91L610,214H589Z" transform="translate(0 -29)"/><path class="cls-95" d="M581,208l8-9,2,2,.5,4.29L588,205v5l4,4h-9Z" transform="translate(0 -29)"/><polyline class="cls-95" points="612.17 162.59 625 168 625 175 620 179 622 170 615.5 168.5 612.5 172.64 612.17 162.59"/><polygon class="cls-96" points="624 175 610 185 616 185 626 177 626 175 624 175"/><path class="cls-97" d="M596,204a16.9,16.9,0,0,1,3-3,17.28,17.28,0,0,1,6-3l5,5.4-4,6.6h-7Z" transform="translate(0 -29)"/><polygon class="cls-93" points="591 174 597 168 600 172 597 175 598 179 606.71 179 606 181 597 181 591 174"/><path class="cls-93" d="M600,192h11l.72,9.79-2.22,3L608,202l-5-3Z" transform="translate(0 -29)"/></g><g id="Layer_9" data-name="Layer 9"><path class="cls-98" d="M439.64,433.94c1.83-8,8.16-22.55,35.36-35.94l44,51c17.14,9.55,17.59,14.81,17.2,16.8-1.43,7.35-22.27,11.93-38.2,9.2-1.77-.3-2.38-.51-18-4h0l20,45.91L549,519l27,29H453.79L442,499c-.35-8.41-1-21.63-2-38C438.88,443.39,438.37,439.44,439.64,433.94Z" transform="translate(0 -29)"/><polyline class="cls-99" points="439 401 472.57 367.66 435 323 439.64 356.94 439 401"/><path class="cls-100" d="M572,436q-1,15.5-2,31l34,21,2-7h-4l-31-16,5-26,41,17-44-24Z" transform="translate(0 -29)"/><path class="cls-101" d="M517.77,405.59,521,473l-18,2-25-3,23,47h46l9-2-15-42,11-35-8-29Z" transform="translate(0 -29)"/><polygon class="cls-100" points="412 281 470 341 521 379 521 446 498 446 479 444 501 490 549 490 576.23 518.81 573 519 547 492 498 492 478 445 473 441 478 438 498 445 519 442 516 423 506 419 510 415 446 343 441 341 439 358 408 293 412 281"/><polyline class="cls-102" points="439 401 472.14 369.5 469 385 464.92 378.89 441.97 401 443 470 448 473 441 473 439 401"/><path class="cls-103" d="M413,311q.12-.12,57,58l44,25,19,8h31l5,8-5,8h7v69l-3-37-22,29,15,40H549l-13-46,4-5V425l-69-49.79c-.33-1.73-.67-3.47-1-5.21Q412.88,311.13,413,311Z" transform="translate(0 -29)"/><path class="cls-104" d="M650,160.32,637,191h7.94L652,240l-5,4-13,57-21.3,42L604,361l-10,21-30,20h7v46l6-49,11-5,9-10,12-26,16.15-19L640,302l14-62V213.5L650.67,196Z" transform="translate(0 -29)"/><polygon class="cls-104" points="320 519 369 481 411 481 449 511 454 519 320 519"/><path class="cls-105" d="M337,510h30l-52,38Z" transform="translate(0 -29)"/><polygon class="cls-105" points="409.25 480.85 437 481 441 486 441 473 446.53 473.02 448 482 451 474 453 493 428 493 409.25 480.85"/><path class="cls-106" d="M455,548l-38-26h10l-18-11-41,1-48,36h-5l52-38h44l17,12,24.4.15Z" transform="translate(0 -29)"/><polygon class="cls-107" points="549 490 576 519 577 493 571 479 571 435.57 568 454 567 505 561 490 549 490"/><polygon class="cls-108" points="619 444 599 462 619 519 633.94 518.81 619 444"/><polygon class="cls-109" points="617 462 570 438 619 519 617 462"/><polygon class="cls-110" points="577 497.62 585 498 585 508 577 497.62"/><polygon class="cls-111" points="591 483 606 483 594 493 591 483"/></g><g id="Layer_5" data-name="Layer 5"><polygon class="cls-112" points="467 91 455 127 455 207 505.79 329.99 514 366 514 381 506 406 509 406 516 382 516 360 507 326 486 268 468 221 459 174 459 160 483 234 506 302 506 322 492 350 469 370 460 378 439 401 430 412 426 420 428 420 432 412 461 380 497 349 512 320 512.29 273.33 479 197 463 148 464 115 483 78 467 91"/><path class="cls-86" d="M457,111l-24,52-2,6-23,18,.16,7L444,159v67l28,84v11l-9,25,1,3,9-27,1-10-28-86,1-66,21-39.12Z" transform="translate(0 -29)"/><polygon class="cls-86" points="417 117 417 198 466 318 475 347 467 410 457 436 451 481 458 511 454 511 448 473 454 431 465 401 471 370 471 340.57 426 237 418 215 410 185 410 208 399 244 392 253 393 246 407 204 399 159 417 117"/><path class="cls-2" d="M306,39V63l10,9,25-2-8-11L317,69,307,58l3-21,8-8h-5Z" transform="translate(0 -29)"/><path class="cls-2" d="M313,40V61l11,7V66l-8-5V42l11-13h11Z" transform="translate(0 -29)"/><polygon class="cls-2" points="329 38 315.83 26.64 314 19 329 38"/><path class="cls-2" d="M338,123l-20,35-29,30-4,26,15,22,22,4,14,2,1-8s2.68,4-6.66,4H320l-21-8-11-21,6-24,39-39,6,2Z" transform="translate(0 -29)"/><path class="cls-2" d="M330,182l-24,16-9,16-2,25,8,17,21,3,18-6-4-3-14,7s-16,1-19-3l-3-4-5-14q2-11.5,4-23c.4-2.32,2.37-5,5-8,7.08-8,17-9.6,21-10Z" transform="translate(0 -29)"/><polygon class="cls-86" points="356 230 374 241 396.67 247 397 253 356 236 356 230"/><polygon class="cls-2" points="333 217 333 247 354 309 354 339 361 346 384 339 387 337 372 337 363 344 356 337 357 306 337 252 339 225 333 217"/><polygon class="cls-2" points="359 276 356 289 362 314 362 333 373 339 389 337 370 336 364 333 363 313 359 276"/><polygon class="cls-2" points="372.5 247.5 369 255 369 276.69 377 289 371 274 371 258 376 252 372.5 247.5"/><polygon class="cls-2" points="401 289 391 289 373 264 374.81 251.49 377.19 251.49 377 266 391 286 402 284 401 289"/><path class="cls-86" d="M397,308v17l18.62,13.3L438,384l1,105h2V384l-26-53,7,2,28,49-6,34,1,1,8-33-5-16-34-54Z" transform="translate(0 -29)"/><polygon class="cls-2" points="666 102 701 134 712 167 712 213 706 222 704 219 710 213 709 165 697 134 668 111 666 102"/><polygon class="cls-2" points="651 14 670 42 689 75 689 97 682 106 664 106 664 98 682 100 687 88 685 72 672 52 661 52 651 14"/><polygon class="cls-113" points="570.36 183.85 575.5 172.5 599.5 160.5 607.89 159.6 627.5 164.5 634 163.34 633.5 169.5 624.5 169.5 609.5 163.5 599.5 164.5 591.5 169.5 583.5 178.5 583 183.5 577 183.85 576.5 180.5 585.5 173 584.5 170.5 578.5 175.5 573.5 180.5 573.68 183.98 570.36 183.85"/><polygon class="cls-113" points="598.33 162 598 158 600 158 600 162 598.33 162"/><polygon class="cls-113" points="605 161 608 156 608 160 605 161"/><polygon class="cls-113" points="611 160 611 157 626 157 626 161 623 159 615 159 615 163 611 160"/><path class="cls-114" d="M590,198v6l7,6h9l7-9v-9l-2-1v11l-5,7h-8l-6-5,5-7v-4Z" transform="translate(0 -29)"/><circle class="cls-114" cx="600.5" cy="168.5" r="4.5"/><path class="cls-112" d="M520,218l-17-13-1-2-4-2H470v1h12l-10.32,4.7L460,212h-8l-5.76-2L445,215l4,1h12l7-2,13-2,6-6h9l9,4,6,4v8l3-6,2,2,1,4h3Z" transform="translate(0 -29)"/><path class="cls-112" d="M491,211c0,3-3.11,5.25-6,5-2.44-.21-5-2.21-5-5s2.56-4.79,5-5C487.89,205.75,491,208,491,211Z" transform="translate(0 -29)"/><path class="cls-86" d="M667,181q19,53,38,106l-9,5-27-12-18,5v3l11-4,31,11h17l9-23L669,163Q668,172,667,181Z" transform="translate(0 -29)"/><path class="cls-86" d="M358,29H331l-4,5V69l9,10Q347,54,358,29Z" transform="translate(0 -29)"/><polygon class="cls-112" points="485 173 490 167 491 174 485 173"/><polygon class="cls-112" points="497 173 501 169 501 172 515 177 515 180 504 174 501 174 497 173"/><path class="cls-112" d="M488.69,207l5.31,2v7l-5,5-15,1h15l6-6v-9l-2-2-9,1Z" transform="translate(0 -29)"/><path class="cls-86" d="M333,250l26,60,2,5,31,21,7,19-15,11-9,4-14,19v34l12,21-9-21,3-31,36-33,1-21-39-36-.35-36Z" transform="translate(0 -29)"/><path class="cls-86" d="M655,29q1,10,2,20l15,45-2,143-8,19-10-4.67L654,216l-5-25,2-31-6.35,13H627l-33,14h-4l1-4,17-9,1-3,8-4-1-3,6-3h21v-6l-17-19H610L571,84H559V74l-7-7-5-27,2-2h-4l-6-9h-4l10,22V66l2,1v8L529,92l-46,15-13,14-16-1-37,28.5V188l-16,3-6,8-1,28.89L383,228l-21.55-22.91L351,205q-3.5,11.5-7,23l25,46,11,7h12l5-14.13,3,2.13,14,45-17,11V295l-32-21-32-23-9-44,2-20,11-45-4-8V69q8.5-20,17-40Z" transform="translate(0 -29)"/><circle class="cls-115" cx="482.5" cy="179.5" r="2.5"/><circle class="cls-115" cx="598.5" cy="167.5" r="2.5"/><path class="cls-116" d="M469,29h31l-7.51,12.94L420,64.06Z" transform="translate(0 -29)"/><polygon class="cls-117" points="496 3 482 12 492 27 506 19 496 3"/><polygon class="cls-118" points="597 75 613 94 632 105 606 74 597 75"/></g></svg>