<svg xmlns="http://www.w3.org/2000/svg" viewBox="0 0 1000 600.4"><defs><style>.cls-1{fill:none;}.cls-2{fill:#fffcfa;}.cls-3{fill:#fff;}.cls-4{fill:#ffeba2;}.cls-5{fill:#ffec9f;}.cls-6{fill:#a6dff2;}.cls-7{fill:#d08a2a;}.cls-8{fill:#fefeff;}.cls-9{fill:#b31a74;}.cls-10{fill:#484477;}.cls-11{fill:#f9b890;}.cls-12{fill:#ec2850;}.cls-13{fill:#ea8c8c;}.cls-14{fill:#ce8d25;}.cls-15{fill:#3f8040;}.cls-16{fill:#fffdff;}.cls-17{fill:#f3ba85;}.cls-18{fill:#f0858d;}.cls-19{fill:#faefa0;}.cls-20{fill:#a5dff3;}.cls-21{fill:#f8b990;}.cls-22{fill:#bb1b7d;}.cls-23{fill:#091337;}.cls-24{fill:#ba1979;}.cls-25{fill:#f6911d;}.cls-26{fill:#d6e05d;}.cls-27{fill:#438138;}.cls-28{fill:#83bad8;}.cls-29{fill:#af156d;}.cls-30{fill:#a83078;}.cls-31{fill:#477e44;}.cls-32{fill:#ffb98b;}.cls-33{fill:#ffe9a7;}.cls-34{fill:#ea8a8e;}.cls-35{fill:#3f8139;}.cls-36{fill:#fbba92;}.cls-37{fill:#f8ba93;}.cls-38{fill:#bf1673;}.cls-39{fill:#ae985f;}.cls-40{fill:#f28892;}.cls-41{fill:#fff8ff;}.cls-42{fill:#fffcf6;}.cls-43{fill:#c1b225;}.cls-44{fill:#ec8b92;}.cls-45{fill:#bb1871;}.cls-46{fill:#661244;}.cls-47{fill:#cbdd57;}.cls-48{fill:#f58792;}.cls-49{fill:#fbba94;}.cls-50{fill:#df5f3c;}.cls-51{fill:#e78a82;}.cls-52{fill:#468238;}.cls-53{fill:#80b83d;}.cls-54{fill:#f8858c;}.cls-55{fill:#1e1280;}.cls-56{fill:#47803c;}.cls-57{fill:#6fc5f8;}.cls-58{fill:#242b86;}.cls-59{fill:#49813a;}.cls-60{fill:#cdd75d;}.cls-61{fill:#e58b8d;}.cls-62{fill:#428a34;}.cls-63{fill:#7fceef;}.cls-64{fill:#1e256d;}.cls-65{fill:#64341d;}.cls-66{fill:#f28487;}.cls-67{fill:#272c90;}.cls-68{fill:#cfd25f;}.cls-69{fill:#ba1770;}.cls-70{fill:#206a91;}.cls-71{fill:#bfb225;}.cls-72{fill:#ffeaa6;}.cls-73{fill:#f45b22;}.cls-74{fill:#62cbe9;}.cls-75{fill:#149d67;}.cls-76{fill:#071339;}.cls-77{fill:#0a1239;}.cls-78{fill:#76004a;}.cls-79{fill:#ce724d;}.cls-80{fill:#f193a5;}.cls-81{fill:#816a40;}.cls-82{fill:#70bcde;}.cls-83{fill:#f3c091;}.cls-84{fill:#e78e90;}.cls-85{fill:#736526;}.cls-86{fill:#4f783c;}.cls-87{fill:#0d1134;}.cls-88{fill:#0c1139;}.cls-89{fill:#242b83;}</style></defs><g id="Layer_7" data-name="Layer 7"><rect class="cls-1" width="1000" height="600"/><polygon class="cls-2" points="572 65 476 65 352 203 371 346 398 417 425 420 446 524 373.66 600 653.23 600 636 433 626 323 665 201 572 65"/><path class="cls-3" d="M385.15,0,362,44l-53,75s-2.25-.5-6,15l-15,62-12,30-12,87-51,28,65-26,1-12,16-14-23,58-4,8,7-10,24-42-6,61,6-28,4-34,4-5,13,24-1,5-38,23-53-12,51,16,40-22-1,33-51,57-38,20,45-9,27-22-24,31,42-39-12,30,21-40,12-24-17,55-46,26,37-17-33,34,45-34,4-15,28-48-6,23-4,11,10-6,5-21,7,4-5,15,4,17-13,15,1,21-6,19v17l5,16-6,13,1,23-7,13-5,30,2,2-6.4,19,37.53.4L383,562l-6-19,15-14,2-13-5-14,9-8V467l15-17-1-21h5Q401.07,214.5,385.15,0Z"/><polygon class="cls-3" points="400 450 423 510 405 444 400 450"/><polygon class="cls-3" points="407 417 429.73 513 431.73 511.08 413 418.67 407 417"/><polygon class="cls-3" points="383.56 46.41 358.49 47.26 290.87 85.05 273.96 127.83 292 87.64 358.88 51.71 293.17 101.01 284.54 171.8 288.48 180.88 296.88 102.48 352.61 62.14 365.76 53.36 386 53.83 383.56 46.41"/><polygon class="cls-3" points="665 488 669 468 682 434 673 424 703 355 703 368 716 341 716 249 716 244 721 249 721 292 724 284 727 257 727 284 732 257 709 182 690.76 146.47 714 169 723.12 221 718 169 682 127 657.45 75.76 607.28 65 601 62 638 64 690 104 728.13 167.45 695 99 648 58 640 52 623 39 592.72 39 600 30 646 46 595 19 579 26 571 27 571 9 561 21 552.64 0 546.25 0 566 54 616 100 647 167 684 281 643.5 491.27 665 488"/><polygon class="cls-3" points="386 0 381 21 398 4 394 21 410 0 386 0"/><polygon class="cls-3" points="381 34 422 0 433 0 386 34 381 34"/><path class="cls-3" d="M528,0l16,15-7,2L517,0,417,15,439,0Z"/><path class="cls-3" d="M567.5,14.33q2.58.71.5,18.67l31-6,11,3,28.15,12.15L670,75l-6.23-1.24-33.94-33.7L620,42l-38,1,1,14,55,1,22,18,34,38,17,44-4.11-2L692,117,654,84,580,65,560,32,557.5,0H561V23Q565.56,13.81,567.5,14.33Z"/><polyline class="cls-3" points="679 225.96 705.26 251.86 734.27 361.55 731.53 376.16 702.07 254.27 677.6 235.16 722.38 282.8 731.79 338.36 742.64 352.72 730.6 341.77 718.78 283.01 687.89 258.73 692.13 269.31 699.41 299.09 692.41 344.31 689.64 338.59 696.06 291.2 688.59 284.52 664.88 254.81 654.31 264.05 686.68 308.53 685.58 336.94 675.77 386.97 650.92 427.07 650.01 422.61 672.17 387.19 675.58 336.97 646.12 266.48 660.38 230.63 684.4 209.34 686.51 212.13 668.17 226 679 225.96"/><path class="cls-3" d="M298.15,216.15c-18,2-27.37,21.51-28.34,23.61l-38.1,106.88,1.52,14.79,39.56-119,26-17-48.61,43.72-14,54.58-12,13.4L237,327.23l16.7-57.56,32.82-21.61-5.11,10.19-9.75,29.07L274.88,333l3.23-5.47-2.42-47.77,8-6,26.12-27.62,9.75,10.09-36,41.61-1.29,28.4,5.58,50.68,21.41,42,1.28-4.37-19.12-37.15-2.07-69.89,38.14-48.21-11.21-36.92-22.15-23.23-2.34,2.6,17.12,15.36A28.36,28.36,0,0,0,298.15,216.15Z"/></g><g id="Layer_2" data-name="Layer 2"><path class="cls-4" d="M482,91v84h43l6,31a77.68,77.68,0,0,0-5,15,82.15,82.15,0,0,0,2,42q3.5,8.5,7,17l-6,7-42-15-5-83-72-21Z"/><polygon class="cls-5" points="544 345 604 303 604 366 548 366 544 345"/><polygon class="cls-5" points="466 386 509 366 551 369 551 412 473 412 466 386"/><polygon class="cls-5" points="404 237 466 237 466 321 400 311 404 237"/><polygon class="cls-6" points="482 91 482 80 497 76 574 76 627 177 640 244 623 303 604 303 604 213 594 174 561 91 482 91"/><path class="cls-7" d="M394,189l34-74,80.5-50L561,60l34,31H561l-6.57-13.74L497,76,482.43,87.21,482,91l-63,75,32,10Z"/><polygon class="cls-8" points="433 162 467 162 467 184.63 442.4 173.31 433 170.38 433 162"/><polygon class="cls-9" points="547 64 561 52 561 72 551 72 554 65 547 64"/><path class="cls-10" d="M470,284c1.26.24,1.93,3.58,2,10l21-2v10H469l-3-2.87V289Q468.54,283.72,470,284Z"/><path class="cls-11" d="M482,183l9,2v36l-9-6Z"/><path class="cls-12" d="M476,218l6-7,9,10v21l-12,2-3-17Z"/><path class="cls-13" d="M473,266l18-24h-8l-6.7-16.23L468,226Q470.51,246,473,266Z"/><path class="cls-14" d="M466.09,273.43,466,289l27-6,19-2-21-11V242Z"/><polygon class="cls-15" points="473 266 473 273 481 264 481 254.61 473 264.7 473 266"/><rect class="cls-16" x="491" y="257" width="22" height="13"/><polygon class="cls-17" points="512 281 513 270 491 270 512 281"/><path class="cls-18" d="M513,270l9,3v9l-10-1Q512.5,275.5,513,270Z"/><rect class="cls-19" x="522.38" y="273" width="9.62" height="9"/><polygon class="cls-20" points="528 221 512 221 512 244 522 258 522 273 532 273 532 283 535 284 538 279 532 271 532 228 528 228 528 221"/><polygon class="cls-21" points="512 281 522 282 532 282 535 284 530 293 527 293 512 281"/><path class="cls-22" d="M493,282l-7-12h-6l-10,14v12h23v6l15-6v-9l4-6Z"/><polygon class="cls-23" points="486 282 481 290 486.5 296 493 296 493 282 486 282"/><polygon class="cls-23" points="517 293 522 289 512 281 508 287 517 293"/><polyline class="cls-24" points="523.28 175 523 198 526 198 512 221 528 221 540 210 551 198 532 182 538 174 534 174 527 182 527 175"/><path class="cls-25" d="M544,202l34-21,13,2,9,8-1,13H548Z"/><path class="cls-26" d="M575,191v7l-26-1,15-6Z"/><polygon class="cls-27" points="544 202 548 204 536.68 213.21 537 207 544 202"/><polygon class="cls-28" points="552 204 552 210 574 210 580 204 578 203 552 203 552 204"/><polygon class="cls-29" points="537 213 537 221 552 210 552 203 549 203 537 213"/><polygon class="cls-30" points="580 204 574 210 590 220 596 215 580 204"/><path class="cls-31" d="M599,190q-.5,6.5-1,13H578l18,12-6,5,10,6h14V202Z"/><path class="cls-32" d="M616,169l-4,31v26h19Z"/><path class="cls-33" d="M532,228v16h17V228H537l1-5Z"/><polygon class="cls-34" points="554 228 549 228 549 244 585 244 591 238 583 229 571 231 554 231 554 228"/><polygon class="cls-35" points="592 228 592 238 585 238 584.43 230.83 580 231 583 235 582 235 578 231 574 231 570 231 574 236 572 237 567 231 581.23 229.3 584 228 592 228"/><polygon class="cls-36" points="604 303 600 358 542 358 542 411 475 411 474 386 520 371 477 371 447 396 473 421 549 421 596 391 612 366 619 334 623 303 604 303"/><path class="cls-37" d="M433,360l14-11,28-4h52l15,6h14l-29,15H467l-15-10v10l-19,3Z"/><polygon class="cls-38" points="475 372.67 527 373 527 364 475 364 475 372.67"/><polygon class="cls-39" points="542 358 527 364 527 373 542 373 542 358"/><polyline class="cls-40" points="475 364 457 355 450 355 450 364 437 364 437 357 449 351 449 341 405 341 407 348 449 395 475 373 475 364.4"/><polyline class="cls-41" points="458 351 449 351 450 355 457 355 458 351"/><polygon class="cls-42" points="542 358 552 351 554 351 554 358 542 358"/><polyline class="cls-42" points="479 350 485 359 502 359 502 350 479 350"/><polygon class="cls-42" points="506 350 504 359 518 359 529 355 529 350 506 350"/><rect class="cls-42" x="475" y="349" width="2" height="3"/><rect class="cls-43" x="554" y="346" width="11" height="12"/><polygon class="cls-44" points="449 341 449.06 348.15 458.77 347.64 476 340 530 340 541 347 554 347.3 554 341 544 341 517 322 502 324 498 324 485 322 449 341"/><polygon class="cls-45" points="497 328 504 328 504 333 512 333 527 339 474 339 449 348 449 341 462.26 334 474 334 474 329 489 333 490 329 497 333 497 328"/><path class="cls-46" d="M554,346v5H542l-15-6H474l-16,6h-9v-3l25-9h55l10.43,7Z"/><polygon class="cls-47" points="401.19 289 414 300 466 299.13 467 331.5 449 341 416.55 340.75 401.19 289"/><polygon class="cls-36" points="417 242 400 242 381 266 405 341 417 341 417 242"/><polygon class="cls-48" points="381 223 401 223 417 242 400 242 381 266 381 246 381 223"/><polygon class="cls-49" points="466 299 466 332.03 485 322 485 309 507 309 508 302 469 302 466 299"/><polygon class="cls-4" points="496 316 507 319 507 309 485 309 485 318.5 496 316"/><polyline class="cls-50" points="478 293 470 293 470 296 478 296 478 293"/><polyline class="cls-51" points="508 296 493 302 508 302 508 296"/><polyline class="cls-52" points="522 289 517 293 518 294 518 302 526 302 530 293 527 293 522 289"/><polyline class="cls-53" points="508 287 517 293 518 294 508 296 508 287"/><polygon class="cls-54" points="508 302 518 302 518 294 508 296 508 302"/><path class="cls-55" d="M410,183l-16,6-32,39,39-2,16-22H402l2-16Z"/><path class="cls-56" d="M426.42,184.63c-14-1.2-22.89,10.64-23.42,11.37-.33,2.67-.67,5.33-1,8h15q.5-6,1-12h24A25.72,25.72,0,0,0,426.42,184.63Z"/><path class="cls-57" d="M453,196v9l-36-1V192h28Z"/><polyline class="cls-58" points="482 197.5 482 220 475 220 475 208 453 197.5 467 195 482 197.5"/><path class="cls-59" d="M475,207v13h-7l-15-15v-9Z"/><polygon class="cls-60" points="466.08 273.72 473 265 473 230 456 230 456 242 466 242 466.08 273.72"/><polygon class="cls-61" points="448 230 456 230 456 242 430 242 430 235 448 230"/><polygon class="cls-62" points="417 242 430 242 430 235 416 234 417 242"/><path class="cls-63" d="M418,226l5,4h25l-10.8,3L415,234a5,5,0,0,1,3-8Z"/><path class="cls-64" d="M416,232h21l4.87-.19,4.94-1.81h1.4l-.21,6-1-1-1-1a4.83,4.83,0,0,0-4,0l-2,1-3,2-1,5-1-5-2-1h-1s-1.08,0-1,1l0,1v3l-2-4-1-1h-3l-1,3-1,3v-6l-2-1h-5Z"/><path class="cls-65" d="M381,225.77V266l24,75,2,7,42,47,26,26h74l-16,7-3,11H460s-38,1-64-39-26-41-26-41q-4-65.5-8-131Z"/><path class="cls-66" d="M623,303l-4.87,35L640,334s10,3,8-21,0-24,0-24l-14.81-13.5L623,303"/><polyline class="cls-67" points="623 303 638 303 631.85 309.85 634 311 631 318 645 320 648 309 649 289 637 284 623 303"/><path class="cls-68" d="M623,303l-1,7.07,10-.07,6-7Z"/><path class="cls-68" d="M628,312l5,2v11H623c.67-3,1.33-6,2-9Z"/></g><g id="Layer_6" data-name="Layer 6"><polygon class="cls-69" points="582 412 466 497 466 600 522 600 582 412"/><polygon class="cls-70" points="437 506 466 497 466 600 449 600 437 506"/><path class="cls-71" d="M585,427,467,520l42,41,56-60Z"/><rect class="cls-72" x="521" y="484" width="29" height="29"/><polygon class="cls-73" points="504 556.12 554 512.79 562 525 522 600 524 575 504 556.12"/><polygon class="cls-74" points="366 600 366 579 410 532 423 532 430 600 366 600"/><polygon class="cls-70" points="544 600 614 522 631 522 665 586 658.6 600 544 600"/><polygon class="cls-75" points="600 556 622 561 604.5 600 592 600 600 556"/><polygon class="cls-75" points="544 600 547 584 573 584 566 600 544 600"/><path class="cls-76" d="M412,392q12.5,57,25,114h29l119-94V398l-36,23-71,8,50,5-1,5H458Z"/><polygon class="cls-76" points="410 532 437 506 452 572 449 600 425 600 412 566 401 566 423 532 410 532"/><path class="cls-65" d="M585,398v14l-4,3.17L574,434v18s29-34,26-37l-3-3-1-21Z"/><path class="cls-76" d="M600,415l-50,69-1,15,10,25-42.5,76H554l3-14.49L592,556l-10,44h14l18-64h12l5,48h27l-15.74,16H806l-32-57-53-49-56-16V439Z"/></g><g id="Layer_5" data-name="Layer 5"><path class="cls-77" d="M403,186c-.33,3.33-.67,6.67-1,10l24-11,27,13h29V183l-32-9H418Z"/><path class="cls-77" d="M530,183v15h21l28-15h11l22,20v-6l-18-23H544Z"/><path class="cls-78" d="M428.3,204.5l-7.3.5-13,13-2,4s14-9,18-10l4-1Z"/><path class="cls-79" d="M437.83,204.5,428,204v7h10Z"/><polygon class="cls-80" points="448 205 445 210 450 212 470 228 470 220 453 205 448 205"/><polygon class="cls-81" points="444 219 444 228 432 228 432 217 422 217 422 228 422 229.2 423 230 443.36 230 451 226 451 217 444 219"/><polygon class="cls-82" points="436 225 444.55 225 445 225 445 228 432 228 432 225 436 225"/><path class="cls-77" d="M401,226c0,.29,15.19,15.83,16,16V228l5,1c.33-3.33.67-6.67,1-10h9v6h13v-6h6v-4l17,14,5,.17L455,212l-4-1-5-1H431l-5,1-3,1.33L419,214l-4,2.5-5,1.5,11-12h30l19,15v-2l-16-15H417C416.36,204.15,400.91,225.38,401,226Z"/><ellipse class="cls-2" cx="442" cy="216.5" rx="3" ry="2.5"/><polygon class="cls-77" points="423 213 423 205 427 213 423 213"/><polygon class="cls-77" points="430 212 430 200 433 211 430 212"/><polyline class="cls-77" points="436 211 436 199 440 211 436 211"/><polygon class="cls-77" points="445 211 447.4 206 448 212 445 211"/><polygon class="cls-77" points="451 212 451 208 449 212 451 212"/><polygon class="cls-77" points="453 213 455 209 454 214 453 213"/><path class="cls-83" d="M550,215c-.55.12-11.64,2.74-13,10a8.34,8.34,0,0,0,0,3h20l-7-6Z"/><path class="cls-84" d="M576,218h3l2,8-4,2H567Z"/><polygon class="cls-85" points="548 215.57 548 223 555 228 569.36 228 576 223 576 214 548 215.57"/><polygon class="cls-86" points="585 220 575 213 575 218 579 218 579 227 585 227 585 220"/><polygon class="cls-77" points="532 228.79 528 229 549 210 575.56 208.44 581 209 582 212 600 226 585 227 585 221.5 576 214 576 218 569 218 569 223 554 223 554 216 549 215.51 532 228.79"/><polygon class="cls-77" points="537 213 549 202 577 202 598 214 598 216 596 215.51 577 203 551 203 537 214 537 213"/><ellipse class="cls-3" cx="564" cy="214.5" rx="3" ry="2.5"/><rect class="cls-6" x="554" y="223" width="7" height="3"/><polygon class="cls-87" points="552 211 556 205 556 210 558.68 210.02 560 204 560 209.35 564 210 564 204 566 210 568.38 203 568.38 208.86 576 202 570 210 557 212 552 211"/><path class="cls-88" d="M573,210l8-7-5,7h3l7-6-5,7,5,1v3l9-5-6.57,7,7.57-2-6,5h5l6-2-4,4,.32,1.92L599,224l5-2.5-4,4.5H587s9,1-2-8S573,210,573,210Z"/><path class="cls-76" d="M561,52,542,68H518l-91,51.53-33,73L371,230v40l23,103,30,31q-3.5,11.5-7,23h-7l2,22-16,17v28l-9,8s12,20,0,30l-12,10,6,19-10,23,2.66,16H336.89L347,561s7-10,5-29,0-19,0-19l9-19-9-27,14-45,5-10-5-17,5-16-25-15-46-83q-5-40.5-10-81,9.5-38,19-76l53-76,60-36L445,0h76l37,27,12-16V31Z"/><path class="cls-89" d="M371,412c-13,18-13,15-13,15v25l13-25v25l10-6-11-34"/><polygon class="cls-89" points="352 467 352 484 358 500.33 358 508 374 484 352 467"/><path class="cls-89" d="M352.3,536.06,358,566H345.7s4.3,33,.3,23-4-11-4-11-3,7,0-12,3-17,3-17Z"/><path class="cls-76" d="M557.5,55V72L576,80l16,34h-7l29,48,21,80-12,61,13.87-14L646,299l-15,35H619l-7,32-16,25,1,21,3,3-27.89,38.49L663,470l16-37-8-8,34-84,9-8V236l7,13v33l3,2V255l3,29,2-29-21-72L656,76,604,65h24l-32-5,44,2V55H585V48l15-20H568Z"/><path class="cls-76" d="M300.62,174.75,277.54,229,265,315.08l-59.91,29.65,71.23-31,3-20.78L297,248l13.15-.1L272.38,299l-1.74,11.87,26.25-27.49L268.39,354l29.86-52.24L293,365.65l9.54-65.31,14.33-15.08,10.58,52.07-6.05-55.45L336.51,275Q318.57,224.88,300.62,174.75Z"/><polygon class="cls-76" points="330 313 275 344 222 336 279 351 330 323 330 313"/><path class="cls-76" d="M320,249V365l-54,59-38,17,46-10,32-27-32,40,46-45-15,38,39-83-24,70-42,44,47-37,22-73,6,3-28,58-54,34,54-29,36-63-8,31-6,12,10-8,8-31s15-28-12-71S320,249,320,249Z"/><polygon class="cls-76" points="362 52 389.5 0 405 0 394 18 422 0 428 0 385.15 34.36 362 52"/><polygon class="cls-76" points="531.5 0 541 7 537 18 554 34 561 26 551 0 531.5 0"/><polygon class="cls-76" points="566 33.13 595 21 646 46 600 28 591 40 622 40 695 99 729 169 692 103 640 62 596 60 631 65 596 65 566 33.13"/><polygon class="cls-76" points="665 109 716 169 724 224 709 173 665 109"/><polygon class="cls-89" points="468 44 470 34 399 72 394 86 439 60 445 60 402 86 464 52 477 48 434 82 434 91 479.5 65 470 65 512 43 468 44"/><polygon class="cls-89" points="665 218 654 225 681 249 674 252 672 264 659 257 665 300 668 309 646 369 656 378 688 276 688 333 688 362 665 422 612 494 617 500 574 553 573 561 665 470 679 432 671 423 705 341 705 366 714 333 714 263.5 665 218"/><path class="cls-76" d="M418,423.74,401,541.61,411,531q7-51.49,14-103Z"/></g></svg>