<svg xmlns="http://www.w3.org/2000/svg" viewBox="0 0 1000 580.01"><defs><style>.cls-1{fill:none;}.cls-2{fill:#fff;}.cls-3{fill:#ffd8a4;}.cls-4{fill:#f1c3b4;}.cls-5{fill:#f25e8e;}.cls-6{fill:#fbe4ec;}.cls-7{fill:#fdfdfd;}.cls-8{fill:#ffc383;}.cls-9{fill:#f18ba1;}.cls-10{fill:#bf195b;}.cls-11{fill:#b6dff1;}.cls-12{fill:#f1e5f3;}.cls-13{fill:#dcc3ea;}.cls-14{fill:#bf88e2;}.cls-15{fill:#9957ce;}.cls-16{fill:#ffdfaf;}.cls-17{fill:#fdfdfb;}.cls-18{fill:#f9d1c7;}.cls-19{fill:#fedead;}.cls-20{fill:#f7ad90;}.cls-21{fill:#a1d6f6;}.cls-22{fill:#f4ae94;}.cls-23{fill:#c360b3;}.cls-24{fill:#c7e880;}.cls-25{fill:#e9eba9;}.cls-26{fill:#d4e46a;}.cls-27{fill:#bbe8a3;}.cls-28{fill:#e26495;}.cls-29{fill:#67993a;}.cls-30{fill:#2d2e06;}.cls-31{fill:#f3265f;}.cls-32{fill:#fb9b5f;}.cls-33{fill:#e885b4;}.cls-34{fill:#e8c4d8;}.cls-35{fill:#5d2483;}.cls-36{fill:#16000b;}.cls-37{fill:#934a9e;}.cls-38{fill:#fedda8;}.cls-39{fill:#faabc8;}.cls-40{fill:#f6a3bf;}.cls-41{fill:#ea1c71;}.cls-42{fill:#f75564;}.cls-43{fill:#bfefff;}.cls-44{fill:#551069;}.cls-45{fill:#f99691;}.cls-46{fill:#930a4e;}.cls-47{fill:#cf2a24;}.cls-48{fill:#b71a2d;}.cls-49{fill:#d1491f;}.cls-50{fill:#292794;}.cls-51{fill:#26083a;}.cls-52{fill:#67349d;}.cls-53{fill:#734ab2;}.cls-54{fill:#f46485;}.cls-55{fill:#efcb8f;}.cls-56{fill:#fff6c4;}.cls-57{fill:#ffe17e;}.cls-58{fill:#e02f63;}.cls-59{fill:#510873;}.cls-60{fill:#aa67b6;}.cls-61{fill:#fe679c;}.cls-62{fill:#f81861;}.cls-63{fill:#f17b4d;}.cls-64{fill:#f8c061;}.cls-65{fill:#ffef9d;}.cls-66{fill:#dddf71;}.cls-67{fill:#006859;}.cls-68{fill:#348a31;}.cls-69{fill:#267f87;}.cls-70{fill:#20193b;}.cls-71{fill:#f16894;}.cls-72{fill:#e61f58;}.cls-73{fill:#e36b6a;}.cls-74{fill:#f34e5c;}.cls-75{fill:#62238e;}.cls-76{fill:#dde673;}.cls-77{fill:#6a9462;}.cls-78{fill:#0f383e;}.cls-79{fill:#e56b82;}.cls-80{fill:#a03fb0;}.cls-81{fill:#00332a;}.cls-82{fill:#e5f1ff;}.cls-83{fill:#69a4aa;}.cls-84{fill:#2952aa;}.cls-85{fill:#2234a0;}.cls-86{fill:#16205e;}.cls-87{fill:#650f7a;}.cls-88{fill:#fff29c;}.cls-89{fill:#f1b600;}.cls-90{fill:#f23839;}.cls-91{fill:#ce1960;}.cls-92{fill:#1f2e19;}.cls-93{fill:#a3ab6f;}.cls-94{fill:#2c593c;}.cls-95{fill:#c6689d;}.cls-96{fill:#c5e7f3;}.cls-97{fill:#91cfcc;}.cls-98{fill:#4c9d96;}.cls-99{fill:#e8b162;}.cls-100{fill:#003e33;}.cls-101{fill:#b1b32b;}.cls-102{fill:#33671c;}.cls-103{fill:#b61d18;}.cls-104{fill:#d44316;}.cls-105{fill:#fd9f01;}.cls-106{fill:#feed57;}.cls-107{fill:#c2cb3a;}.cls-108{fill:#80751b;}.cls-109{fill:#eae6f7;}.cls-110{fill:#4d2c70;}</style></defs><g id="Layer_5" data-name="Layer 5"><rect class="cls-1" y="0.01" width="1000" height="580"/><path class="cls-2" d="M359,64l38-31,62-11,78,90q5.5,121,11,242l82,127,54,100H444l19-84,9-37-39-88-55,2-35-99-7-61V151Z" transform="translate(0 -0.99)"/><polygon class="cls-2" points="316 409.01 281 436.01 277 432.01 316 409.01"/><polygon class="cls-2" points="367 513.01 393 520.01 393 524.01 367 513.01"/><polygon class="cls-2" points="330 116.01 296 161.01 302 165.01 330 116.01"/><polygon class="cls-2" points="330 125.01 296 187.01 300 191.01 330 125.01"/><polygon class="cls-2" points="332 116.01 291 116.01 291 126.01 294 119.01 332 119.01 332 116.01"/><polyline class="cls-2" points="339.72 68.51 324 91.01 327 93.01 339.72 68.51 313 70.01 312 73.01 339.72 68.51"/><path class="cls-2" d="M291,101c7,9,7,10,7,10l38-7-3,4-35,4-7-10Z" transform="translate(0 -0.99)"/><polyline class="cls-2" points="303 102.01 335 94.01 335 97.01 304 103.01 303 102.01"/></g><g id="Layer_7" data-name="Layer 7"><polygon class="cls-3" points="468 51.01 390 61.01 370 130.01 390 136.01 419 136.01 466 109.01 500 107.01 468 51.01"/><polygon class="cls-4" points="453 26.01 401 30.01 360 69.01 347 139.01 370 130.01 390 61.01 468 53.01 453 26.01"/><polygon class="cls-5" points="404 29.01 430.19 28.07 433 31.01 404 32.01 359.38 76.07 359 63.01 404 29.01"/><path class="cls-6" d="M456,25c1.33,2.67,2.67,5.33,4,8l-27,3-5-9Z" transform="translate(0 -0.99)"/><polygon class="cls-7" points="474 103.01 474 91.01 444 85.01 428 118.01 474 103.01"/><polygon class="cls-8" points="479 51.01 465.6 52.92 494 106.01 508 112.01 479 51.01"/><path class="cls-9" d="M479,52l-13,2L456,33l13-2Z" transform="translate(0 -0.99)"/><polygon class="cls-10" points="469 30.01 456 32.01 453 26.01 425.25 28.07 420 21.01 449 16.01 469 30.01"/><path class="cls-11" d="M403,31l8-8,13-2q2.58,4,5.15,8.06Z" transform="translate(0 -0.99)"/><path class="cls-12" d="M354,185l35-10c-8.59,7.85-18.87,20-19,35-.11,12.53,6.91,18.39,10,32,2.41,10.61,2.59,26.64-9,49h14l31,11-69,37-15-99,10-35q4.71-23.08,9-23Q352.53,182,354,185Z" transform="translate(0 -0.99)"/><polygon class="cls-13" points="379 178.01 353 187.01 353 208.01 359 208.01 369 203.01 383 174.01 379 178.01"/><polygon class="cls-14" points="355 188.01 358 192.01 357 198.01 367 200.01 381 178.03 355.29 184.68 354 185.01 355 188.01"/><polygon class="cls-15" points="359 194.01 369 189.01 374 184.01 363 189.01 362 187.01 354 186.66 359.38 184.01 367 183.01 381 178.01 366 197.01 360.4 198.97 369 191.01 358 196.01 359 194.01"/><path class="cls-16" d="M385,213l-18-9-11,6-4,20,25,10-13,33,17,2,61-12,8-26-19-14Z" transform="translate(0 -0.99)"/><path class="cls-17" d="M393,143l-1,15-12.36,22.55L366,198l1,6h6l8-3,22-3-1-34,11-24Z" transform="translate(0 -0.99)"/><path class="cls-18" d="M423,152l-11-13-12,1v4l-7-1q-.5,7.5-1,15l4-13,14.28.06L402,166l-.4,32.17L446,236q-2.81,14.15-5.6,28.3L493,292l12-28q2-48.49,4-97Z" transform="translate(0 -0.99)"/><path class="cls-19" d="M392.91,144.3l7.15.51L400,140h11l11,13,6-13-18-13-21,5Z" transform="translate(0 -0.99)"/><path class="cls-20" d="M383,128l12,1v15.45L383,132Z" transform="translate(0 -0.99)"/><path class="cls-21" d="M433,133l-12,4q-.5-11.5-1-23l13-5.31V113l9-4Z" transform="translate(0 -0.99)"/><polygon class="cls-22" points="423 147.01 409 164.01 429 184.01 447 164.01 425 142.01 423 147.01"/><polygon class="cls-19" points="427 154.01 433 167.01 440 160.01 427 154.01"/><path class="cls-23" d="M420.83,137,426,148c.56,1.09,1.64,2.92,2.7,2.79,1.54-.19,2.11-4.42,2.3-5.79a25.43,25.43,0,0,0-1-11Z" transform="translate(0 -0.99)"/><polygon class="cls-24" points="396 199.01 411 192.01 434 204.01 435 222.01 429 227.01 396 199.01"/><polyline class="cls-25" points="408.5 203.01 403 204.95 420 219.37 429 218.01 429 208.01 416 200.01 408.5 203.01"/><path class="cls-26" d="M378,200l15-4,3,4-15,7Z" transform="translate(0 -0.99)"/><path class="cls-27" d="M369,204l9-4,4,9-7,9h-3Z" transform="translate(0 -0.99)"/><polygon class="cls-28" points="380 206.01 379.5 209.69 373 217.01 378 219.01 393 213.75 396 199.01 381 206.01 380 206.01"/><path class="cls-29" d="M370.75,203.22,366,204.55,370.75,217,374,231l16,7-4-9-13-12-2.17-5.43L373,207Z" transform="translate(0 -0.99)"/><polygon class="cls-30" points="383 230.01 373 216.01 386 229.09 383 230.01"/><path class="cls-31" d="M399,231l-12-11v-3.16L381,214l-5,5.77L386,231l3,7,4,3,6-2Z" transform="translate(0 -0.99)"/><polygon class="cls-32" points="373 216.01 385.36 229.29 389 238.01 389 244.01 395 240.01 401 238.01 402 230.01 412 230.01 409 222.01 406 226.01 391 219.01 392 215.01 392 210.01 386 210.01 386 221.01 397 229.01 397 238.01 395 239.01 389 236.01 387 228.01 377.04 217.58 373 216.01"/><polygon class="cls-28" points="391.25 210.01 391.25 214.36 401 214.01 401.81 203.94 396 199.01 391.25 210.01"/><polygon class="cls-31" points="389 206.01 395.19 203.01 399 206.01 391.25 211.48 389 210.01 389 206.01"/><polygon class="cls-33" points="426.95 225.27 405.05 206.69 401 203.25 401 214.01 415 229.01 424 229.01 426.95 225.27"/><polygon class="cls-34" points="405 210.01 404.25 206.01 420 219.37 420 222.01 416 222.01 405 210.01"/><polyline class="cls-35" points="410.29 223.97 402 216.01 392 215.01 391 216.01 391 220.01 394 222.01 406 226.01 409.89 224.5"/><polygon class="cls-36" points="392.15 213.39 402 214.01 412 223.01 407 223.01 397 217.01 392 217.01 392.15 213.39"/><polygon class="cls-37" points="427 225.01 424 229.01 415 229.01 409.38 222.97 412 230.01 426 230.01 429 227.01 427 225.01"/><path class="cls-38" d="M456,175l-15-5c-.33,1.67-.67,3.33-1,5l6,10,5-6,5,7,7-3Z" transform="translate(0 -0.99)"/><polygon class="cls-39" points="500.5 169.51 505.5 188.51 460.5 214.51 502.5 263.51 473.5 347.51 497.5 354.51 509.5 333.51 515.5 163.51 500.5 169.51"/><polygon class="cls-40" points="379 345.01 395 332.01 407 328.01 419 335.01 425 331.01 457 340.01 440 362.01 378 355.01 379 345.01"/><polygon class="cls-41" points="444 347.01 451 338.32 476 347.01 470 364.01 425 373.01 373 375.01 382 352.01 419 335.01 444 347.01"/><polygon class="cls-42" points="515.42 165.66 497 345.01 519 320.01 521 169.01 515.42 165.66"/><polygon class="cls-43" points="460.5 273.89 484 301.01 451 338.01 474 346.06 493 291.01 468 270.01 460.5 273.89"/><polygon class="cls-44" points="519.02 318.46 483.26 350.36 476 346.01 470 364.01 518 351.01 519.02 318.46"/><polygon class="cls-45" points="374 283.79 367 276.01 367 302.01 370 294.01 376 289.01 374 283.79"/><polygon class="cls-46" points="369 277.51 379 286.01 389 276.01 379 289.01 373 291.51 369 284.01 369 277.51"/><polygon class="cls-47" points="375 267.01 382 256.01 396 256.01 407 251.01 410 251.01 447 265.01 462 265.01 468 270.01 464.52 276.01 433 272.01 424 268.01 399 268.01 386 279.01 379 287.01 374 284.01 374.63 273.26 375 267.01"/><path class="cls-48" d="M387,260l12,4,10-2,12,2-17,2H394l-6.5,12.5L379,288l-5-3q.5-5.5,1-11h4Z" transform="translate(0 -0.99)"/><polygon class="cls-49" points="399 269.01 387 278.01 394 265.01 404 265.01 412 269.01 399 269.01"/><polygon class="cls-50" points="393 273.51 393 280.01 424 274.01 424 269.01 399 269.01 393 273.51"/><path class="cls-51" d="M379.28,289.64,387,279l12-10h25l10.06,4.13L456,274h2.82s1.18-4,2.18-3l1,1v3H424v-5H399l-6,6.23,0,4.77h-6Z" transform="translate(0 -0.99)"/><polygon class="cls-52" points="408 278.01 408 269.01 409.13 269.01 409 278.01 408 278.01"/><path class="cls-53" d="M399,274l8-1v5s-8,3-8,2v-6" transform="translate(0 -0.99)"/><polygon class="cls-53" points="410 273.01 410 276.01 417 275.01 416 273.01 410 273.01"/><path class="cls-54" d="M378.35,290.27,387,281l35-6h40l-26,18-56,2Z" transform="translate(0 -0.99)"/><polygon class="cls-55" points="462 265.01 466 265.01 472 272.01 465.8 280.01 463.76 275.61 467.13 271.51 460.5 265.01 462 265.01"/><path class="cls-56" d="M389,283l27-4h31l2.44,5-12.69,8.46L433,285l-16-1s-23,9-27,6l-4-3,1-4Z" transform="translate(0 -0.99)"/><polygon class="cls-57" points="388.03 287.53 418 281.01 420 282.01 428 281.01 429 285.01 421 288.01 418 284.01 394.79 293.48 388.03 287.53"/><path class="cls-58" d="M382,294l10-2,4,2,10-4,32.89,1L425,295l-43,3-2-3Z" transform="translate(0 -0.99)"/><polygon class="cls-59" points="383 298.01 425 298.01 439 290.01 422.53 294.01 402 294.01 382 297.01 383 298.01"/><polygon class="cls-60" points="385 300.01 392 307.01 394 308.01 399 308.01 409 307.01 436.75 291.51 421 298.01 383 298.01 385 300.01"/></g><g id="Layer_4" data-name="Layer 4"><polygon class="cls-61" points="435 150.01 423.88 142.5 427 157.01 441 161.01 435 150.01"/><polygon class="cls-62" points="443 161.01 430 152.23 430 132.01 461 120.01 461 127.01 443 161.01"/><polygon class="cls-63" points="443 155.01 440 146.01 454 127.01 463 123.01 462 133.01 443 155.01"/><path class="cls-64" d="M461,121v6l11-7-2-3Z" transform="translate(0 -0.99)"/><path class="cls-65" d="M462,135c-.33-3-.67-6-1-9l11-6,20,9-1,2Z" transform="translate(0 -0.99)"/><path class="cls-66" d="M470.39,117.58,472,120l20,9,10-13-18-5Z" transform="translate(0 -0.99)"/><path class="cls-67" d="M513,119v27l-23-14,13-18Z" transform="translate(0 -0.99)"/><polygon class="cls-68" points="502 133.01 492 128.01 499.12 118.57 503 118.01 506 122.01 502 133.01"/><path class="cls-69" d="M455,107l18-6,19,4a32,32,0,0,1-6,4c-12.72,6.54-26.25,2.63-31,1Z" transform="translate(0 -0.99)"/><path class="cls-70" d="M427,119v9l3-12.3L458.1,106a11.09,11.09,0,0,0,4.9,1h3l7-2.53,13.84,2.43,4.05-2L509,112l2.1,6.68L484,112l-56,23-5-2-2.53-8.11L424,128l-1-7,2,5Z" transform="translate(0 -0.99)"/><path class="cls-71" d="M455,175l17,10,26-15Z" transform="translate(0 -0.99)"/><polygon class="cls-72" points="446.05 167.01 456 174.01 473 176.01 498 169.01 484 167.01 446.05 167.01"/><path class="cls-73" d="M495,166l-11,2,4,2,9,.28,6-.28a4.92,4.92,0,0,0-1-4C500.47,164.36,497.41,164.17,495,166Z" transform="translate(0 -0.99)"/><polygon class="cls-74" points="511 155.01 509 158.01 491.43 165.66 500 167.01 500.5 169.51 506 168.01 515 166.01 511 155.01"/><path class="cls-75" d="M443,156l-3.75,5.5L446,164c11.95-7.56,19-17.35,17-25a11,11,0,0,0-2-4Z" transform="translate(0 -0.99)"/><path class="cls-76" d="M491,131c1,.55.21,4.14-1,8l-27,1-2-5a1.42,1.42,0,0,1,0-1c.37-.93,2-1.41,4-1,16.48-.27,23.3-1,25-1.86A1.16,1.16,0,0,1,491,131Z" transform="translate(0 -0.99)"/><polygon class="cls-77" points="499 136.49 490 131.01 490 141.01 496 145.01 499 136.49"/><path class="cls-78" d="M511,144v9c0,8-14-8.55-14-8.55l1.21-7.45,12.89,7.84" transform="translate(0 -0.99)"/><path class="cls-70" d="M447,151.33,460,133l17-1,14-1,22,15-22.55-13.28L462,134Z" transform="translate(0 -0.99)"/><path class="cls-79" d="M451,159h11.19l9.81,4,0,5H444Z" transform="translate(0 -0.99)"/><path class="cls-80" d="M494,153a6.87,6.87,0,0,1,6,1,6.79,6.79,0,0,1,1.5,8.26L491,167l-7,1H472v-5l-10-4,14-2Z" transform="translate(0 -0.99)"/><path class="cls-81" d="M494.5,145,511,156l-2,3-10.24,4.5c-.59-2.83-1.17-5.67-1.76-8.5l-3-2Z" transform="translate(0 -0.99)"/><path class="cls-82" d="M460.5,145.51,463,142l9-1-2,7,10,11H459.51L453,157.5V153Z" transform="translate(0 -0.99)"/><path class="cls-83" d="M465,149l-1.85,10h-3.64q-8.42-.7-8.51-2c0-.31.31-.64,1-1l8-10,3-4,9-1-2,9Z" transform="translate(0 -0.99)"/><path class="cls-84" d="M480,150h-7l-2.11,2.34L472,155l3,3,4,1h4l3-1,.56-6.67L483,149Z" transform="translate(0 -0.99)"/><polygon class="cls-85" points="479 148.01 481 150.01 484 149.01 482 153.01 486 150.01 487 154.01 489 146.01 484 141.01 475.32 141.01 472 145.01 470.89 151.34 471.69 153.26 474 151.01 476 152.01 479 148.01"/><path class="cls-86" d="M474,141l-4,2-1,5,1,3,2,3v-7l3-3,7-1,5,3-1,12,4-1,1-14-8-3Z" transform="translate(0 -0.99)"/><circle class="cls-70" cx="480" cy="149.01" r="3"/><circle class="cls-2" cx="482.5" cy="147.51" r="1.5"/><path class="cls-87" d="M462,159h13l12-2,7-4a4.61,4.61,0,0,0,4,1c-.33,1.33-.67,2.67-1,4a2.05,2.05,0,0,0-3-2l-3,1v1l-8,1s1,6.93,0,3.47L482,159l-2,1-1,4-1-4h-3l-1,3-2-3-3,0-1,3Z" transform="translate(0 -0.99)"/><path class="cls-88" d="M345.33,152l5.88-7L364,146v10l-14,5s2,19-2,9-4-11-4-11Z" transform="translate(0 -0.99)"/><path class="cls-89" d="M361,142l7,4,1,5-8,7,2-11-9-1-10,10q1-6,2-12Z" transform="translate(0 -0.99)"/><polygon class="cls-90" points="368 142.01 375 147.01 375 155.01 362.79 155.44 368 150.01 368.2 146.01 360.19 141.41 361 139.01 367 139.01 368 142.01"/><path class="cls-91" d="M370,142l23,1-.5,13.43-1.5,3.39a28.39,28.39,0,0,1-3-.82c-3.87-1.27-5.14-2.53-8-3a12.69,12.69,0,0,0-4,0l-1-1-1-7.71L368,143Z" transform="translate(0 -0.99)"/><polygon class="cls-92" points="348 161.01 347 166.5 349 176.01 356 174.01 358 163.01 361.84 155.44 348 161.01"/><polygon class="cls-93" points="348 157.01 360 153.01 361.84 155.44 348 161.01 348 157.01"/><polygon class="cls-94" points="362 158.01 366 155.01 381 155.01 391 159.01 388.44 163.51 381 159.01 373 159.01 366 161.01 362 158.01"/><path class="cls-95" d="M350,176.72,353,190c.67-1.33,1.33-2.67,2-4l4-1-7-9Z" transform="translate(0 -0.99)"/><path class="cls-96" d="M378,178l-12,4-6-2,2-8,10-7Z" transform="translate(0 -0.99)"/><path class="cls-97" d="M369,169l-6,5-1,6,4,2-7,3-1-12.5,13-9.5C370.33,165,369.67,167,369,169Z" transform="translate(0 -0.99)"/><polygon class="cls-98" points="356 170.01 356 183.44 359 184.01 359 172.01 374 159.01 357.68 165.01 356 170.01"/><polyline class="cls-84" points="371 168.01 375 164.01 383 165.01 385.7 168.51 382 175.01 381 176.01 374 176.01 370 173.01 371 168.01"/><path class="cls-85" d="M371,163l4-2,8.21,3L382,167l-9,2v5l8,3-8,2.57L368,175c.33-3.33.67-6.67,1-10Z" transform="translate(0 -0.99)"/><path class="cls-86" d="M368,165l2-4.14,7-.86,10.62,6-2.35,4.28L381,168v-4l-5-1h-3l-4,4v7l4,5-5-4Z" transform="translate(0 -0.99)"/><circle class="cls-70" cx="380" cy="168.01" r="3"/><circle class="cls-2" cx="382.5" cy="167.51" r="1.5"/><path class="cls-87" d="M358.35,184.88,353,187c-.33,1.67-.67,3.33-1,5l3-5,5-2,4-1v3l4-5,4-1-1,2,7-5-9,3Z" transform="translate(0 -0.99)"/><polyline class="cls-70" points="363 155.01 358 150.01 361.57 156.51 363 155.01"/><path class="cls-70" d="M359,159s-1,0-3-3l-2-3,1,3,3,4Z" transform="translate(0 -0.99)"/><polygon class="cls-70" points="354 162.01 350 159.01 348 156.01 349.24 160.51 354 164.01 354 162.01"/><polygon class="cls-70" points="354 168.01 347 168.01 345 167.01 348 169.01 354 169.01 354 168.01"/><polygon class="cls-70" points="354 171.01 347 171.01 353 173.01 354 171.01"/><polyline class="cls-70" points="353 176.01 348 175.01 354.48 178.01 353 176.01"/><polygon class="cls-70" points="354 164.01 349 165.01 347.55 163.51 349 166.01 353 166.01 354 164.01"/><path class="cls-99" d="M442,165l14,10-6,4-9-9Z" transform="translate(0 -0.99)"/><path class="cls-69" d="M348,139l13-10,20,1,14,11-3,2-5-1a52.55,52.55,0,0,0-23-3,51.2,51.2,0,0,0-13,3Z" transform="translate(0 -0.99)"/><path class="cls-70" d="M344,142l4-3,6,1,6-8,17,4,2-3,10,9.4,5-.4-2,3s-21,0-25-2l-4-2-8,4h-5l-3,2-3,9Z" transform="translate(0 -0.99)"/></g><g id="Layer_2" data-name="Layer 2"><polygon class="cls-70" points="352 161.01 363.92 154.27 382 154.01 391 159.01 390.31 160.09 381.15 155.44 366 155.33 364 158.01 371 159.01 373 158.01 380 158.01 389 162.51 387 166.13 382 162.01 377 159.01 371 161.01 364 165.01 359 170.01 357 173.01 357.63 182.97 352 175.01 352 161.01"/><path class="cls-70" d="M448,159l14-20,6-1,6-1,5,1h7l4.45-.47L494,141l6,2,10,8v6.5L496,146l-2,8-4,3V145l-5-3H474l-10,1-11.21,13,2.21,2-8,7h-2Z" transform="translate(0 -0.99)"/><polygon class="cls-70" points="453 155.01 462 158.01 451 158.01 453 155.01"/><polygon class="cls-70" points="464.4 138.01 459.51 133.01 463 139.01 463 141.01 456 139.01 459.22 142.01 456 145.01 452.29 143.46 456.5 148.01 465.6 140.51 464.4 138.01"/><polygon class="cls-70" points="468 138.01 470.89 132.78 471 138.01 476 138.01 479 130.01 478.72 138.43 483 139.01 486.19 131.92 486.11 140.18 493.29 133.01 490 141.01 497 143.01 500 139.01 500 146.01 490 142.5 477 139.68 466 140.01 468 138.01"/></g><g id="Layer_6" data-name="Layer 6"><polygon class="cls-100" points="433 371.01 470.5 363.51 519.5 350.51 545.5 389.51 524.5 410.51 447.5 385.51 433 371.01"/><polygon class="cls-101" points="460 431.93 487 424.01 487 402.01 447.5 385.51 460 431.93"/><polygon class="cls-102" points="480 406.01 487 424.01 525 406.01 510 385.01 442.5 380.51 480 406.01"/><polygon class="cls-103" points="548 386.01 523.63 406.66 550 442.01 561 427.01 559 389.01 548 386.01"/><path class="cls-104" d="M530,466l22.38-26.24L525,407h-1Z" transform="translate(0 -0.99)"/><polygon class="cls-105" points="487 424.01 525 406.01 524.5 410.51 530.28 458.03 500 458.01 487 424.01"/><path class="cls-106" d="M460,433q8,32.5,16,65l26,3,29-36c-.33-2-.67-4-1-6H500l-13-34Z" transform="translate(0 -0.99)"/><path class="cls-107" d="M474,495l28,6-13,54Z" transform="translate(0 -0.99)"/><polygon class="cls-108" points="485.85 580.01 498.6 499.28 502 500.01 530 522.01 516 580.01 485.85 580.01"/><polygon class="cls-109" points="477 468.01 500 465.01 527 447.01 502 468.01 477 468.01"/></g><g id="Layer_9" data-name="Layer 9"><path class="cls-70" d="M403,31c.8,1.76-37.53,35.38-43,39l-13,70-3,7v11l2.7,8.72,7.3,20.93-1,20.58L347,221v47l39,94,39,12,8-2,20,15q4,21,8,42l16,67,13.58,55L486,581H338q4-47,8-94L321,319V189L349,63l35-34Q401,26.6,403,31Z" transform="translate(0 -0.99)"/><polygon class="cls-110" points="358 57.01 334 158.01 341 191.01 328 199.01 325 312.01 362 416.01 354 442.01 380 456.01 364 486.01 383 515.01 388 509.01 422 565.01 436.75 580.01 428.83 580.01 402 561.01 421 580.01 389.34 580.01 361 550.01 364.49 580.01 358.7 580.01 350.59 534.18 346 540.01 343 533.01 346.79 580.01 333.51 580.01 325 519.01 323 548.01 313 550.01 329 496.01 298 536.01 294 534.01 330 487.01 321 388.01 317 328.01 318 185.01 336 116.01 350 62.01 358 57.01"/><polyline class="cls-2" points="424 20.01 411 7.01 373 26.01 372 30.01 352 37.01 358 42.01 338 71.01 332 95.01 329 108.01 312 187.01 312 410.01 296 462.01 306 472.01 310 435.01 334 500.01 383 532.01 367 499.01 353 499.01 332 457.01 355 479.01 406 494.01 407 488.01 360 476.01 392 465.01 389 455.01 365 471.01 343 457.01 361 465.01 367 452.01 360 452.01 360 460.01 332 442.01 323 357.01 341 429.01 386 439.01 412 418.01 410 410.01 387 432.01 353 424.01 321 318.01 321 198.97 336 178.58 328.51 154.19 352 60.76 388 30.01 403 30.01 413 21.74 424 20.01"/><path class="cls-2" d="M376,32q-1.08-2.55-26,5L336,72l4,3s2-1,0-2a7.74,7.74,0,0,0-3-1l14-32,9,4Q376.94,34.21,376,32Z" transform="translate(0 -0.99)"/><polygon class="cls-2" points="350 56.01 322 39.01 331 26.01 378 26.01 377 27.01 332 27.01 324 38.01 351 55.01 350 56.01"/><path class="cls-2" d="M375,29l-28,4L327,58s-3,2-2,0l1-2,21-24,29.57-4Z" transform="translate(0 -0.99)"/><polygon class="cls-2" points="411 7.01 366 7.01 362 27.01 367 27.01 368 9.01 411 8.01 411 7.01"/><polyline class="cls-2" points="350 19.01 410 9.01 351 20.01 350 19.01"/><path class="cls-70" d="M415,12,446,2,573,1A386.19,386.19,0,0,1,679,73q11,58,22,116l15,119q-5,48.5-10,97l-6,89-12,87H523.63c32.08-94.49,38.29-134.43,37.37-153-.1-2-1.5-28.49-2-38h-2q-.5,19-1,38l-10,7,8-41-18,39-5-8,23-34-6-4-9.81,8.31L515.5,352.56q1.75-15.78,3.5-31.56,1-75.49,2-151l-12-7q1-9,2-18-1-14.5-2-29L479,52,469,31,449,17l-25,4Z" transform="translate(0 -0.99)"/><polygon class="cls-70" points="569 414.01 502 500.01 530 524.01 516 580.01 538.19 580.01 576 497.01 569 414.01"/><path class="cls-110" d="M459,22l56.5,65.19L538,112l14-60,36,134,23-33,29,126,12,41,18-59,9,33-33,73,42-28-57,94,39-8-5,38-22,51,33-32-7,32,20-32-13,51-40.53,48h52.08C693.69,545,699,506.24,703,465s6.14-80.42,7-117A474.18,474.18,0,0,0,670,64a180.07,180.07,0,0,0-60-46C574.75,1.46,543.28,1.21,516,1a310.32,310.32,0,0,0-84,11Z" transform="translate(0 -0.99)"/><path class="cls-110" d="M639,208q2.44,41,4.9,81.89l-22,30L645,336.72l17.53-44.29Z" transform="translate(0 -0.99)"/><polygon class="cls-110" points="587 162.01 591 218.01 571 244.01 605 230.01 603.68 162.51 587 162.01"/><polygon class="cls-110" points="638 237.01 617 278.01 583 298.01 583 304.01 621 297.01 640.86 256.01 638 237.01"/><polygon class="cls-110" points="641 423.01 611.93 452.02 588 458.01 571 468.01 615 471.01 647 447.01 674 414.01 641 423.01"/><path class="cls-110" d="M636.13,318.54l-12,35.21,20.86-17Z" transform="translate(0 -0.99)"/><polygon class="cls-110" points="621.88 318.88 610.51 336.08 577.66 351.64 591.45 358.84 615.71 345.97 635.37 325.13 621.88 318.88"/><polygon class="cls-110" points="703 465.01 731 524.01 725 532.01 701.6 479.52 702 507.01 723 554.01 711 568.01 712 545.01 697.07 516.51 705.36 580.01 678.95 580.01 694 509.34 693 468.01 703 465.01"/><path class="cls-2" d="M411,8l15-7H588l44,18,42,29,35,72,21,149c0,23.27-7.17,137-11,166q-15.5,73-31,146H674l29-116q-1-30.5-2-61,5.5-73.5,11-147l-11-26-6-58q-4-29.5-8-59L658,58,574,8H464l-15,9-29,5Z" transform="translate(0 -0.99)"/><path class="cls-2" d="M708,219V442l16,52q.5,12,1,24l-15-51-24,65-68,31H588l79-32,21-42-23,22-65,24,13-15,47-12-67-10,33-2,29,7,22-14-18,8-6-13h7v8l28-18,9-85-18,72-45,10-42,2,11-7,42-13,24-2,30-101V231l-15-20.39Z" transform="translate(0 -0.99)"/><path class="cls-2" d="M695,140q-4,29-8,58l-18,46-29.92,26.83-.51,8.21,33-29.35L681,223l16-2q1.5,6,3,12l-54.35,84.05-28.11,3.43L601,325l46,3,31.2-46.72L711,246.9l.09-38.32Q703.05,174.29,695,140Z" transform="translate(0 -0.99)"/><path class="cls-2" d="M696.22,236.71q-6.33,10.46-12.67,20.92L683,302.4l-9.65,48-30.6,5.08,3.33,8.83,36.88-11,8.46-42.16,1.75-41.46,12.08,15.17.08,53.56-11.6,27.25-16.28,15.09-24.14,18.62-36.89,26.25,18.83-7.44,35.91-21.35-31,47.83,17.65-6.66,21.81-47.64L714,356.55,718.71,333l9.84-49q-2.55-12.75-5.08-25.5l-9.57-59Q705.07,218.09,696.22,236.71Z" transform="translate(0 -0.99)"/><path class="cls-2" d="M649.4,43.44,649,95l23.5-20L665,151l35-6q-4-16.5-7.94-33L674,59Z" transform="translate(0 -0.99)"/><polygon class="cls-2" points="660.05 45.01 688 43.01 688 48.01 674.18 46.53 660.05 45.01"/><polygon class="cls-2" points="694 56.01 670.11 45.29 694 60.01 694 56.01"/><path class="cls-2" d="M682.53,108.9q1.08-2.55,26,5l14,35-4,3s-2-1,0-2a7.74,7.74,0,0,1,3-1l-14-32-9,4Q681.58,111.12,682.53,108.9Z" transform="translate(0 -0.99)"/><path class="cls-2" d="M680.53,102.9l28,4,20,25s3,2,2,0l-1-2-21-24-29.58-4Z" transform="translate(0 -0.99)"/><path class="cls-2" d="M738.46,119.06l-23.09-16.33-31.71,4.42s-3.56-.61-1.46-1.38l2.1-.76,31.75-3,24.24,17.42Z" transform="translate(0 -0.99)"/><polygon class="cls-2" points="705.36 185.41 739.36 230.41 733.36 234.41 705.36 185.41"/><polygon class="cls-2" points="708.36 201.41 742.36 263.41 738.36 267.41 708.36 201.41"/><path class="cls-2" d="M716,86.4c-7,9-7,10-7,10l-38-7,3,4,35,4,7-10Z" transform="translate(0 -0.99)"/><polyline class="cls-2" points="679 30.72 632 20.41 632 24.28 677.53 32.01 679 30.72"/><polygon class="cls-2" points="608.81 11.39 653.29 18.26 654.19 38.63 649.25 37.87 651 19.93 608.66 12.37 608.81 11.39"/><polygon class="cls-2" points="711.87 355.94 745.87 400.94 739.87 404.94 711.87 355.94"/></g></svg>