<svg xmlns="http://www.w3.org/2000/svg" viewBox="0 0 1000 600"><defs><style>.cls-1{fill:none;}.cls-2{fill:#fff;}.cls-3{fill:#fcde9d;}.cls-4{fill:#e68fb9;}.cls-5{fill:#7b1fb2;}.cls-6{fill:#e6ee99;}.cls-7{fill:#e53935;}.cls-8{fill:#860e58;}.cls-9{fill:#220533;}.cls-10{fill:#35106f;}.cls-11{fill:#c21759;}.cls-12{fill:#52288e;}.cls-13{fill:#8e23a7;}.cls-14{fill:#fedfb1;}.cls-15{fill:#fdcdb9;}.cls-16{fill:#e1bfe4;}.cls-17{fill:#fff798;}.cls-18{fill:#ffad8f;}.cls-19{fill:#fff9c2;}.cls-20{fill:#fbd7cb;}.cls-21{fill:#fde5c1;}.cls-22{fill:#fdc77d;}.cls-23{fill:#f09b9e;}.cls-24{fill:#ffd6b2;}.cls-25{fill:#e2e999;}.cls-26{fill:#fdd168;}.cls-27{fill:#d3de5e;}.cls-28{fill:#e0b34e;}.cls-29{fill:#fc8b63;}.cls-30{fill:#fdcbb4;}.cls-31{fill:#fabe3c;}.cls-32{fill:#c26cc3;}.cls-33{fill:#ef6e73;}.cls-34{fill:#d81a60;}.cls-35{fill:#bb8dd5;}.cls-36{fill:#e81562;}.cls-37{fill:#9c1766;}.cls-38{fill:#0e0726;}.cls-39{fill:#e66432;}.cls-40{fill:#841fa3;}.cls-41{fill:#03675d;}.cls-42{fill:#1d217c;}.cls-43{fill:#070826;}.cls-44{fill:#936cd6;}.cls-45{fill:#cbd527;}.cls-46{fill:#378f39;}.cls-47{fill:#006a47;}.cls-48{fill:#4a1211;}.cls-49{fill:#a83b03;}.cls-50{fill:#b4b327;}.cls-51{fill:#e74919;}.cls-52{fill:#58892d;}.cls-53{fill:#eeba02;}.cls-54{fill:#feee5a;}.cls-55{fill:#2b752a;}.cls-56{fill:#1c2373;}.cls-57{fill:#00685d;}.cls-58{fill:#831957;}.cls-59{fill:#2d136a;}.cls-60{fill:#26368e;}.cls-61{fill:#2f3e9d;}.cls-62{fill:#aa69bb;}.cls-63{fill:#9a74cb;}.cls-64{fill:#c5daf9;}.cls-65{fill:#83c4c6;}.cls-66{fill:#d4acaa;}.cls-67{fill:#eb704f;}.cls-68{fill:#18655d;}.cls-69{fill:#85c593;}.cls-70{fill:#36136d;}.cls-71{fill:#045c72;}.cls-72{fill:#d64e72;}.cls-73{fill:#401878;}.cls-74{fill:#882cab;}.cls-75{fill:#e51d5e;}.cls-76{fill:#a71351;}.cls-77{fill:#591838;}.cls-78{fill:#380c1d;}.cls-79{fill:#6d204c;}.cls-80{fill:#f88765;}.cls-81{fill:#ec4533;}.cls-82{fill:#f06292;}.cls-83{fill:#f5ac83;}.cls-84{fill:#efdb7a;}.cls-85{fill:#fefffd;}.cls-86{fill:#aa1559;}.cls-87{fill:#871246;}.cls-88{fill:#1b000d;}.cls-89{fill:#d71e61;}.cls-90{fill:#cb4238;}.cls-91{fill:#ec2568;}.cls-92{fill:#f85228;}.cls-93{fill:#ae1357;}.cls-94{fill:#dc3e3f;}.cls-95{fill:#dfe873;}.cls-96{fill:#fdc800;}.cls-97{fill:#139190;}.cls-98{fill:#dce282;}.cls-99{fill:#ff7544;}.cls-100{fill:#2f9f87;}.cls-101{fill:#de7772;}.cls-102{fill:#4a2491;}.cls-103{fill:#ae1959;}.cls-104{fill:#d74b70;}.cls-105{fill:#77357d;}.cls-106{fill:#0472b1;}.cls-107{fill:#6153a0;}.cls-108{fill:#e4f1fa;}.cls-109{fill:#7bb8a9;}.cls-110{fill:#86c8c6;}.cls-111{fill:#2aa69b;}.cls-112{fill:#107f6c;}.cls-113{fill:#f9fffb;}.cls-114{fill:#000500;}.cls-115{fill:#26388a;}.cls-116{fill:#ffe7ff;}.cls-117{fill:#6d83bf;}.cls-118{fill:#004423;}.cls-119{fill:#882fb1;}.cls-120{fill:#007e62;}.cls-121{fill:#1d7a70;}.cls-122{fill:#1b1249;}.cls-123{fill:#1d6454;}.cls-124{fill:#9e30ab;}.cls-125{fill:#510d0c;}.cls-126{fill:#150019;}.cls-127{fill:#4090e9;}.cls-128{fill:#613fa0;}.cls-129{fill:#0b0742;}.cls-130{fill:#0d9589;}.cls-131{fill:#44c1b1;}.cls-132{fill:#1e386b;}.cls-133{fill:#4663a7;}.cls-134{fill:#001d45;}.cls-135{fill:#0f0021;}</style></defs><g id="Layer_7" data-name="Layer 7"><rect class="cls-1" width="1000" height="600"/><path class="cls-2" d="M473,82H297L264,260l107,82q6.5,44.51,13,89-17,53.51-34,107l222,61c-16.71-83.63-.65-120.72,18-139,9.72-9.53,18.1-11.95,32-25,29.28-27.5,40.83-62.54,46-88l21-101L614,76Z"/><path class="cls-2" d="M366,529l-16,9-75,62H575Z"/><polygon class="cls-2" points="316.57 0 289 34 296 34 308 19 287 52 264 86 268 88 283 65 277 100 267 171 247 195 249 197 258 188 259 188 244 216 256 246 244 265 228 289 234 299 235 297 240 277 242 275 237 292 254 309 268 306 268 305 242 290 250 282 302 347 307 347 307 346 281 314 308 345 319 360 314 382 342 414 353 410 320 379 327 374 327 384 340 384 361 422 367 408 357 407 343 372 343 370 352 385 355 382 370 414 378 414 360 377 367 372 374 395 377 395 370 361 315 342 266 287 277 239 309 191 366 98 402 2 316.57 0"/><polygon class="cls-2" points="650 0 654 5 666 9 705 65 705 76 664 27.06 721 109 733 280 726 274 722 212 721 222 708 237 714 247 710 252 705 246 709 264 701 253 698 253 716 292 714 292 702 271 703 284 697 292 694.7 287.03 695 321 689 323 693 288 685 289 685 221 642 120 637 9 647 0 650 0"/></g><g id="Layer_2" data-name="Layer 2"><path class="cls-3" d="M422,418c-.38.08-2,.55-3,5l38,55L400.91,600h61.28L513,486l-65-43,2.4-7.53L430,428C427.48,421.47,424.25,417.53,422,418Z"/><polyline class="cls-4" points="366 336 422 418 419 423 380 366 368.92 370.36 362 343 366 336"/><path class="cls-5" d="M370,356l6-5.36-8.94-13.14S355,314,362,342s6.92,28.36,6.92,28.36l2.16-.85L368,356Z"/><polygon class="cls-6" points="392 423 386 434 396 496 392 496 389 457 383 457 372 525 353 529 384 431 368.92 370.36 380 366 419 423 416 430 392 423"/><path class="cls-7" d="M448,443l65,43L460.15,600h48.71L556,565l11-78L450,435C449.33,437.67,448.67,440.33,448,443Z"/><path class="cls-8" d="M450.4,435.47c2.66-3.11,12.47-3.39,49.6,18.18L496,455l82,32q-2,32-4,64,.5,8.5,1,17l-4.89,32h-64L508,565h38l15-78L449.43,438.5A4.57,4.57,0,0,1,450.4,435.47Z"/><polygon class="cls-3" points="376 565 392 577 388.5 599 359.81 600 376 565"/><polyline class="cls-9" points="561 476 580.43 471.75 578 487 493.51 454.53 496.8 452.48 561 476"/><polyline class="cls-10" points="593 469 580.43 471.75 578 487 588 491 593 469"/><polygon class="cls-11" points="575 568 567 565 578 487 588 491 575 568"/><polygon class="cls-12" points="575 568 578 570 572.91 600 570 600 575 568"/><polygon class="cls-13" points="658.7 600 646 583 640 583 640 596 626 586 621 590 613 587 578 570 573 600 658.7 600"/><polyline class="cls-14" points="282 242 347.03 279.79 367.06 337.5 357 355 311 340 275 290 282 242"/></g><g id="Layer_4" data-name="Layer 4"><polygon class="cls-6" points="366 136 335 214 351 267 371 267 371 175 442 120 397.51 82 366 136"/><path class="cls-15" d="M483,321l-51-45-66.15-9,.15,69,56,82Z"/><polygon class="cls-16" points="353 258 369.68 266.7 368.46 339.6 344 303 350 257 353 258"/><polygon class="cls-3" points="370 172 370 267 450 305 453 300 409 259 431 225 462 191 455 172 442 170 427.39 131.32 370 172"/><polygon class="cls-17" points="398 109 417.81 138.1 439.66 121.81 404.68 88.12 396 90 398 109"/><polygon class="cls-18" points="389.1 96.41 398 109 402 103 394.19 82 388 86 389.1 96.41"/><path class="cls-19" d="M476,321l-67-62,18.49-28.57L449,223l33,22,48-18-20,59,18,10,22-22,3,2-13,14,2,15,16,14-77-4-2,6,55,47-42,41-50-30Z"/><path class="cls-2" d="M486,253l-59-23-18,29,44,41Z"/><polygon class="cls-2" points="576 316 481 315 479 321 535 369 581 342 594 345 587 331 576 316"/><polygon class="cls-20" points="403 356 442 379 426.72 410.49 396 365 403 356"/><polyline class="cls-21" points="491.3 408.58 442 379 426.72 410.49 432 425 547 469 591 457 589 409 525.19 376.6 492 409 491.3 408.58 492 409"/><polygon class="cls-2" points="589.26 415.19 513 415 499 439 539 462 589 445 589.26 415.19"/><path class="cls-22" d="M571,290h-6l-13,10v6h-8.86l6,5.25L560,311l11-10s8,3,8,1v-2l-9-6Z"/><polygon class="cls-23" points="596 290 571 290 569 294 579 300 579 302 586 305 596 290"/><polygon class="cls-24" points="572 189 597 273 586.79 290 596 290 609 272 579 189 572 189"/><polygon class="cls-25" points="553 189 579 189 553 182 523 214 537 214 553 189"/><polygon class="cls-26" points="545 177 579 187 579 189 553 182 545 177"/><polygon class="cls-27" points="526 191 545 177 553 182 523 216 519 209 526 191"/><path class="cls-27" d="M519,163l2-6-15-9-6,17Z"/><polygon class="cls-28" points="579 160 521 157 516.66 163.25 546.18 177.74 558 180.82 564 172 579 172 579 160"/><polygon class="cls-29" points="579 187 579 172 564 171 556.32 180.39 579 187"/><polygon class="cls-30" points="427 103 448 126 521 157 609 163 614 163 471 119 444 95 427 103"/><polygon class="cls-2" points="418 138 448 116 509 138 500 165 442 171 418 138"/><polygon class="cls-31" points="402 72 416 55 458 88 426.72 106.95 402 72"/><polygon class="cls-32" points="579 160 579 171 599 171 609 163 579 160"/><polygon class="cls-33" points="609 272 614 280 601 295 596 290 609 272"/><path class="cls-34" d="M579,171h20l10-8-4,11-12,10q-1,14-2,28l23,55v13l-3,3.5L609,272l-30-83Z"/><polygon class="cls-35" points="549 311 560 311 571 301 579 301 586 305 586 338 579 336 582 315 574 308 569 308 567 315 553 315 549 311"/><path class="cls-36" d="M596,290l-10,15v7.91l10,.09,3-8,3.47-15Z"/><path class="cls-37" d="M610.33,279.79,614,280l4,5-16,17-3,3-5-4Z"/><polygon class="cls-38" points="577.77 301 566 298 558 304 558 308 560 311 572 301 577.77 301"/><polygon class="cls-39" points="616 269 614 269 614 280 619 280 616 269"/><polygon class="cls-40" points="623 298 619 280 614 280 615 284 598 301 600 302 598 305 618 302 623 298"/><polygon class="cls-41" points="636 309 623 298 618 302 599 305 594 313 591 312.98 591 320 628 320 636 309"/><polygon class="cls-42" points="618 293 614 290 598 305 604 307 604 320 618 320 618 293"/><polygon class="cls-43" points="612 295 609 294.69 601.73 301.5 607 306 612 295"/><polygon class="cls-44" points="591 313 586 313 586 338 590 338 591 320 592.57 320 592.57 313 591 313"/><polygon class="cls-45" points="597.43 320 616 337 616 340 594 344 593 340 598 341 602 335 596 326 590.66 326.18 591 320 597.43 320"/><polygon class="cls-46" points="628 320 597 320 615.47 336.51 615.03 340.18 636 357 672 379 675 360 674 315 643 309 635 309 628 320"/><polygon class="cls-47" points="622.62 296.28 636 309 628 320 618 320 618 301 622.7 298.62 622.62 296.28"/><path class="cls-48" d="M601.73,237.67Q596.38,225.33,591,213l11-2s8-5,12-1l4,4-4,12,5,12Z"/><path class="cls-49" d="M619,280l-3-11h-2v-2l-12.68-30.26L619,238l14,42Z"/><polygon class="cls-50" points="669 309 642 309 642 306 633 280 619 238 613 225 615.99 220.04 659 229 679 221.41 685.67 243.29 669 309"/><polygon class="cls-51" points="637 237 619 238 633 280 643 280 637 237"/><polygon class="cls-52" points="616 220 613 225 619 238 637 237 636 224.21 616 220"/><path class="cls-53" d="M659,229l-23-5q.5,6.5,1,13l7,54h24l12-37-16.62-26.66Z"/><polygon class="cls-54" points="665 238 637 237 643 280 666 280 665 238"/><path class="cls-55" d="M678,221l7.67,22.85L686,242h3l3-4-4-20Z"/><polygon class="cls-56" points="619 280 633 280 642 306 642 309 636 309 622.63 296.7 622.53 295.81 619 280"/><polygon class="cls-57" points="671.5 314.52 644 315 642 309 669 309 686 242 689 242 694 261 674.33 364.24 671.5 314.52"/><path class="cls-58" d="M609,163h5l20,4h2l-30,9-12,16h-3V181l14-7,2-6Z"/><path class="cls-59" d="M679,184l-45-17-28,8-12,17h-3v21l20,6,61-28Z"/><polygon class="cls-60" points="659 229 611 219 631 205 674 189 676.35 183 684 189 688 218 659 229"/><polygon class="cls-52" points="692 238 686.13 239.5 685.67 243.29 689 243 694 261 696 255 692 238"/><path class="cls-61" d="M672,379l-22.66-13.85L650,356l-7-7-12,12-45,39q2.5,28.5,5,57l2,12,30-6,45-66Q670,388,672,379Z"/><path class="cls-62" d="M427,410l10,15,111,42,43-10,2,12-32,7L430,428l-8-10Z"/><path class="cls-63" d="M588,416l3,41,19-5-1-14,20-7-7-16Z"/><polygon class="cls-64" points="608 418 608 438 590.13 445.16 586 415.18 608.5 415.4 608 418"/><path class="cls-65" d="M586,415l1-3h21v3Z"/><polygon class="cls-66" points="540.06 384.15 540 412 577 412 577 402.91 540.06 384.15"/><rect class="cls-67" x="518.9" y="370.97" width="10.19" height="9.86" transform="translate(-120.86 370.4) rotate(-35.17)"/><polygon class="cls-68" points="629 351.38 636 349 641 354 631 361 629 351.38"/><polygon class="cls-69" points="568.91 398.8 569 408 577 408 577 398 568.91 398.8"/><polygon class="cls-70" points="637 384 616 409 577 408 577 398 632 383 637 384"/><path class="cls-71" d="M596,401v4h17v4H587l1-3Z"/><path class="cls-72" d="M590,408H577v4h12.26C589.51,410.67,589.75,409.33,590,408Z"/><path class="cls-73" d="M641,366l6,6-6,9-7-7a6.92,6.92,0,0,1,1-5A7.35,7.35,0,0,1,641,366Z"/><polygon class="cls-74" points="633 375 633 383 636 385.19 641 381 641 374 633 374 633 375"/></g><g id="Layer_6" data-name="Layer 6"><polygon class="cls-75" points="531 377 531 372.4 546 355 577 340 594 344 609 336 626 342 641 363 598 392.27 531 377"/><polygon class="cls-76" points="540 376 537 372 561 356 583 356 583 359 590 349 591 356 608 341.45 606 340 596 345 577 340 595.13 343.4 609 336 623 340.94 596 365 570 365 540 376"/><polygon class="cls-77" points="626 342 637.27 357.77 623 345 616 353 596 357 594.93 352.64 604 344 609 348 621.15 340.29 626 342"/><path class="cls-78" d="M595,364v-8l13-7,5,4,3-1-1-4,1.1-.91L623,345l10.59,7.63,6.86,9.6L644,361l2,3-10,2-6-2Z"/><polygon class="cls-79" points="533.32 369.72 528.49 374 526 373 525 376 525 378 526 380 528 378 531 377 538 376 532 375 533.32 369.72"/><polygon class="cls-80" points="597 391 611 381 610.5 385.19 597 394 576 394 576 399 567 399 545 388 555 383 572.24 384.65 597 391"/><polygon class="cls-81" points="529.92 379 540 385.19 545.46 374 536.5 376.6 529 377 529.92 379"/><polygon class="cls-82" points="557 372 605 370 611 381 597 391 558 381 557 372"/><polygon class="cls-83" points="544.72 375.5 557 378 556 383 542.29 380.5 544.72 375.5"/><polygon class="cls-84" points="538.3 384.15 542 380 556 383 554 386 561 387 562 390 545 388 538.3 384.15"/><polygon class="cls-85" points="557 378 573 381 571.89 386.32 554.96 383.25 557 378"/><path class="cls-86" d="M602,365l9,16-.5,4.19L612,387l21-4V364Z"/><path class="cls-87" d="M605,399H576v-5h21l13-9,2,2,10-9,11,5Z"/><polygon class="cls-88" points="526 373 525 377 527 379 527 376 535 376 568 365 587 363 587 356 589 356 591 359 591 363 616 361 616 363.34 642 363 640 369 636 370 636 374 633 375 631 373 630 366 629.51 364.92 616 365 571 367 537 378 528.23 378.02 526.74 380 525 380 522 377 526 373"/><polygon class="cls-89" points="617 370 605 370 611 381 620 376 617 370"/><polygon class="cls-90" points="577 399 569 399 569 394 576 394 577 399"/></g><g id="Layer_5" data-name="Layer 5"><polygon class="cls-91" points="545 177 534.5 192.5 525.61 192 529.5 171.5 545 177"/><path class="cls-92" d="M501,184l25,7h1l-6,23-22-11Q500,193.51,501,184Z"/><path class="cls-93" d="M482,168l2,24,5,2,14-1v-4l23.87,2.5L533,172.74,507,167Z"/><polygon class="cls-94" points="493 178 489 194 469 195 433 226 428 220 429 216 479 181 482.75 177 493 178"/><path class="cls-95" d="M434,199l27-9-5-12-26,8-6-3,34.08-9.69L469,174q-.5,6.5-1,13l-3.43,4.5L434,208Z"/><path class="cls-96" d="M421,203l8.38,24.5,2.86-2.42L431,218l52-37.18V177l-17-3q.5,6.5,1,13l-3,4-26,12-3-4Z"/><polygon class="cls-97" points="483 170 483 177 456 173 468 165 483 170"/><polyline class="cls-98" points="432 225 446.5 214.38 449 220 469 234 477 232 493 242 480 248 449 233 449 223 434 230 432 225"/><polygon class="cls-99" points="517 221 527 221 530 217 528.68 227.5 490.41 243.19 488 240 517 221"/><path class="cls-100" d="M478,232.63l8,4.9L502,230l2-5Z"/><polygon class="cls-101" points="507 223 507 226 519 223 519 219 507 218 499 223 507 223"/><polygon class="cls-102" points="451 219 507 223 507 226 465 236 460 230 456 233 449 220 451 219"/><polygon class="cls-103" points="519 223 520 227 488.81 241.08 485 238 502 230 502.5 227.07 519 223"/><path class="cls-104" d="M446,214l3,4,24-15v-8l-5.16,1Z"/><polygon class="cls-105" points="489 194 489 201 473 203 473 194.8 489 194"/><polygon class="cls-106" points="502 193 500.86 203.93 489 203 489 194 502 193"/><polygon class="cls-107" points="515 213 513 219 520 220 522.07 214.38 515 213"/><polygon class="cls-108" points="465 214 476 225 501 220 501 224 476 229 469 230 463 227 454 222 453 218 465 214"/><polygon class="cls-109" points="465 210 465 214 460 217 460 225.33 454 222 453 218 465 210"/><polygon class="cls-110" points="495 213 499 214 501 218 501 221.13 495 223 491 223 493 218 495 213"/><polygon class="cls-111" points="499 214 494 214 494 208 499 206 508 212 508 218.85 500.6 222 501 218 499 214"/><polygon class="cls-112" points="494 202 500 203.86 513 211 511.27 218.36 507 219 507 214 500 207 495 210 491 207 494 202"/><rect class="cls-113" x="449" y="214" width="2" height="2"/><rect class="cls-113" x="453" y="211" width="3" height="2"/><rect class="cls-113" x="466" y="202" width="5" height="4"/><rect class="cls-113" x="474" y="199" width="2" height="3"/><rect class="cls-113" x="480" y="198" width="2" height="4"/><rect class="cls-113" x="485" y="197" width="1" height="5"/><path class="cls-114" d="M465,212c.33,2,.67,4,1,6l.57,2.49L471,223l5,3h7l8.72-2.75L496,213l-1.09-5-1.71-4.67L496,203l17,8-2,3-1.4,4.61,3.4.39,2.22.32L516,216l2-2,2,1-1.6,4.77,1.6.23,2-1,1-5-23-12-5-1H482l-10,1-5,3-11,8-6,4-8,5v3h1.21Z"/><polygon class="cls-114" points="439 218 468 195 506 192 517 201 517 202 515 202 506 194 469 196 442 218.25 439 219.87 439 218"/><polygon class="cls-114" points="501 204 504 202 507 199 505 206 501 204"/><polygon class="cls-114" points="498 202 500 200 501 196 501 193.08 502 196 502 200 500 204 498 202"/><polygon class="cls-114" points="494 202 495 197 495 202 494 202"/><polygon class="cls-114" points="488 202 488 194.05 490 202 488 202"/><polygon class="cls-114" points="482.5 202 483.5 195.22 484 202 482.5 202"/><polygon class="cls-114" points="477 203 478 192 480 203 477 203"/><path class="cls-114" d="M474,202.88s-4,3.12-3-2.88l1-6,1,5Z"/><path class="cls-114" d="M466,208l-3-4-1.3-4,.3-3,1.5,3.53S463,202,465,204l2,2Z"/><path class="cls-114" d="M460,212l-2-2s-.7,0-2.35-3L454,204l3,1.89,1,2.11,3,2.5Z"/><polygon class="cls-114" points="455 216 452 212 450 207 454 212 456 214 455 216"/><polygon class="cls-114" points="449 219 447.22 216 446.5 212.05 449 216 451 218 449 219"/><polygon class="cls-115" points="481 217 477 217 474 212 472 212 470 212 471 216 473 220 475 222 478 222 479 223 484 220 483.5 223.5 486 223 487 220 487 218 490 219 492 219 494 213.5 491 214 490 214 489 209 488 209 488 214 484 217 481 217"/><ellipse class="cls-115" cx="483" cy="210.5" rx="1" ry="1.5"/><circle class="cls-116" cx="474.5" cy="208.5" r="2.5"/><circle class="cls-117" cx="474" cy="219" r="1"/><circle class="cls-117" cx="479.5" cy="219.5" r="1.5"/><path class="cls-118" d="M610,186l-2-3-13,14v17.2l7-1.2-4-8v-5Z"/><polygon class="cls-119" points="630 179 630 186 647 187 656 192 661 188 649 179 630 179"/><path class="cls-120" d="M678,222v-7l-1-3-5-1-2,2-11,10v3l4.38,1.34Z"/><polygon class="cls-121" points="678 189 682.92 201.16 685.67 200.32 688 213 685 215 675 189 678 189"/><polygon class="cls-122" points="657.05 185.04 653.59 190.66 664 200 670 194 657.05 185.04"/><polygon class="cls-123" points="611 211 616 208 610 197 605 203 609 212 611 211"/><polygon class="cls-124" points="623 216 615.29 216 610 211.5 616 208 634.96 208 637 213 630 218 623 216"/><polygon class="cls-125" points="615.99 220.04 607 219 591 213 602 212 615 209 614 215 617 214 615.99 220.04"/><polygon class="cls-126" points="605 203 601 208 601.32 212.06 608.35 210.53 605 203"/><polygon class="cls-127" points="635 208 637 213 648 212 647 205 641 208 635 208"/><path class="cls-128" d="M656,202l2,3-2,4-8,2c-.33-2-.67-4-1-6Z"/><polygon class="cls-129" points="648 205 657 199 664 199 664 208 642 217 640 217 638 214 636 214 631 218 628 218 616.66 216 623 215 624 212 630 212 630 216 632 216 632 212 642 212 644 209 645.5 212.23 647 212.09 647.57 209 655 209 655 207 657.5 206 657.25 203.81 655 203 650 205 648 205"/><polygon class="cls-130" points="640 192 646 192 650 192 650 203 644.4 206.5 636.38 203 640 192"/><rect class="cls-131" x="642" y="197" width="3" height="5"/><polygon class="cls-118" points="640 189 649 190 658 195 657 199 648 205 645 206.13 649 200 650 196 648 193 640 192.52 639 189 640 189"/><polygon class="cls-118" points="637 202 639.58 204.4 642 204 643 205 645.5 205.75 642 209 633.6 209 637 202"/><circle class="cls-2" cx="637" cy="183" r="1"/><ellipse class="cls-2" cx="643.5" cy="184" rx="0.5" ry="1"/><ellipse class="cls-2" cx="648" cy="184.5" rx="1" ry="1.5"/><ellipse class="cls-2" cx="652" cy="185.5" rx="1" ry="1.5"/><circle class="cls-2" cx="657.5" cy="187.5" r="1.5"/><polygon class="cls-114" points="597 199 617 178 649 178 671 193 670 195 649 180 618 180 598 201.17 597 202 597 199"/><polygon class="cls-114" points="604.41 203.73 607 210 609 209 607 207 607 203 610 199 612 203 613 206 615 209 634 209 640 201 640 190 648.5 190 656.75 195.72 657 199 664 199 666 199 674 191 672 191 665 197 661.79 193.54 653 188 648.5 186 644 185 638 185 629 185 621 185 617 187 612 192 608 197 604.41 203.73"/><polygon class="cls-114" points="613 194 607.43 189 609 193 611 195 613 194"/><path class="cls-114" d="M616,191a6.93,6.93,0,0,1-3-4l-1-3,4,5Z"/><path class="cls-114" d="M620,187s-2,2-2-3v-5Z"/><polygon class="cls-114" points="623 186 621 183 622.7 178 623 182 624 186 623 186"/><path class="cls-114" d="M629,185s0-12,1-6l1,6s0,3-1,2A3.1,3.1,0,0,1,629,185Z"/><path class="cls-114" d="M633,185l1-6v8Z"/><path class="cls-114" d="M640,186a12.13,12.13,0,0,0,1-5v-2l1,3v4Z"/><polygon class="cls-114" points="644 186 645 182 645 179 646 182 645 186 644 186"/><polygon class="cls-114" points="646 186 649 184 650 179 650 183 649 187 646 186"/><polygon class="cls-114" points="650 187 656.33 183 651 188 650 187"/><polygon class="cls-114" points="652 189 656.33 186.2 659 184 657 187 654 190 652 189"/><polygon class="cls-114" points="658 194 663 191 666 188 664.55 192.52 660 195 658 194"/><path class="cls-132" d="M624,202l-3-2-2-2h-3l-2,2,3,5,3,1s3,2,5,1l2-1,1.4.87,4.6.13,5-6-1-2-4-3-2,3-2,3h-5"/><circle class="cls-133" cx="620" cy="203" r="1"/><circle class="cls-133" cx="624" cy="204" r="1"/><circle class="cls-133" cx="632.5" cy="203.5" r="1.5"/><circle class="cls-134" cx="620" cy="194" r="2"/><circle class="cls-116" cx="627" cy="195" r="2"/></g><g id="Layer_8" data-name="Layer 8"><path class="cls-135" d="M418,61l77,55,119,47,65,22q8.5,35,17,70l9-41,16-6-3-95L647,0H318.62L285,60,268,171l-23,45,13,34-13,15,35,46,60,69,4-25,8,28,16-17-6-23-10,4-33-9-30-38-7-58,15-18,23,18V230l33,12-16.26-30.7L366,136l6-2,23-66Z"/><path class="cls-135" d="M409,50l74,72.69L618,160v4L465,120,405.77,67.42Z"/><polygon class="cls-135" points="412 68 405.77 77.33 446 121 536 155 627 164 641 167 523.38 157.16 442 125 402 91 399 92 415 121 432 126 433.29 126.79 413 124 380 59 409 58 412 68"/><polygon class="cls-135" points="319 0 308.1 13.32 292 33 296 33 309 13 308 20 329.43 0 319 0"/><polygon class="cls-135" points="288.7 53.39 267 85 268 86 286.87 57.17 288.7 53.39"/><polygon class="cls-135" points="268 171 248 195 249 196 258 187 268 194 268 171"/><polygon class="cls-135" points="272 223 229 289 234 298 240 276 243 273 238 291 254 307 267 305 241 290 250 280 302 346 306 346 280 314 280 311 300.49 334.57 275 270 272 223"/><polygon class="cls-135" points="309.24 344.62 320 360 315 381 342 413 352 409 318 380 328 372 328 383 341 383 361 420 366 408 357 408 340 369 342.09 366.94 352 383 355.4 380.36 370 413 376 413 359 376 367.44 370.99 374 392 364.06 349.71 309.24 344.62"/><polygon class="cls-135" points="718 113 730 276 728 274 714.2 106.95 718 113"/><path class="cls-135" d="M721,208q-.5,7.5-1,15l-14,14,7,10-3,3-7-8,14-24-5-4-11.29,19.56L707,261l-6-11-4.37,2.15L714,291l-14-26,2,19-5,6-1-4,4-2-3-12-2,1-1,47-4,1,4-34-5,.24L694,261l4.25-16.25L700,222l4-12Z"/><polygon class="cls-135" points="635.97 1.62 663.78 12.87 703.12 67.62 704.03 73.38 661.53 18.43 641.14 10.18 635.97 1.62"/><polygon class="cls-135" points="456 160 514 160 536 171 536 169 526 163 528 160 543 173 544 172 538 165 539 164 548 174 544 179 524 172 524 174 526 175 524 176 512 172 515 174 522 176 513 176 501 172 497 172 499 174 506 176 498 176 483 172 482 171 468 170 420 186 418 183 456 160"/><polygon class="cls-135" points="605 174 602 173 609 167 609 163 622 162 625 165.5 605 174"/></g></svg>