<svg xmlns="http://www.w3.org/2000/svg" viewBox="0 0 1000 600"><defs><style>.cls-1,.cls-43{fill:none;}.cls-2{fill:#fff8ff;}.cls-3{fill:#fff;}.cls-4{fill:#1d1f46;}.cls-5{fill:#827eb9;}.cls-6{fill:#f7a1ba;}.cls-7{fill:#ffe4b5;}.cls-8{fill:#ffcba1;}.cls-9{fill:#fefefe;}.cls-10{fill:#fad4a7;}.cls-11{fill:#ffe7ab;}.cls-12{fill:#bcb133;}.cls-13{fill:#fefff1;}.cls-14{fill:#ffc89e;}.cls-15{fill:#41253c;}.cls-16{fill:#7b2e5a;}.cls-17{fill:#873647;}.cls-18{fill:#8d354d;}.cls-19{fill:#a83997;}.cls-20{fill:#e44251;}.cls-21{fill:#eb974e;}.cls-22{fill:#e96f30;}.cls-23{fill:#883845;}.cls-24{fill:#e35388;}.cls-25{fill:#bcb531;}.cls-26{fill:#15203c;}.cls-27{fill:#55bdfa;}.cls-28{fill:#5d6477;}.cls-29{fill:#2181bd;}.cls-30{fill:#191e44;}.cls-31{fill:#1269ac;}.cls-32{fill:#0c4e7e;}.cls-33{fill:#252b45;}.cls-34{fill:#d3e6f5;}.cls-35{fill:#f5cea5;}.cls-36{fill:#efd9a7;}.cls-37{fill:#e97e88;}.cls-38{fill:#4e6877;}.cls-39{fill:#b6c4c7;}.cls-40{fill:#342b46;}.cls-41{fill:#b45170;}.cls-42{fill:#bfbdd2;}.cls-43{stroke:#792a3d;stroke-miterlimit:10;stroke-width:3px;}.cls-44{fill:#142245;}.cls-45{fill:#285984;}.cls-46{fill:#792a3d;}.cls-47{fill:#191314;}.cls-48{fill:#ffe9f4;}.cls-49{fill:#f6f3ff;}.cls-50{fill:#f2d0a0;}.cls-51{fill:#fffcfb;}.cls-52{fill:#8c344c;}.cls-53{fill:#b97cc1;}.cls-54{fill:#fbcdb3;}.cls-55{fill:#f09789;}.cls-56{fill:#6a3458;}.cls-57{fill:#3f263b;}.cls-58{fill:#e47837;}.cls-59{fill:#f49c42;}.cls-60{fill:#f9b550;}.cls-61{fill:#6f3e51;}.cls-62{fill:#5a3137;}.cls-63{fill:#fa748f;}.cls-64{fill:#d8443a;}.cls-65{fill:#d3e5f9;}.cls-66{fill:#b7ae2d;}.cls-67{fill:#8a394a;}.cls-68{fill:#521d25;}.cls-69{fill:#c07685;}.cls-70{fill:#76455b;}.cls-71{fill:#d7597e;}.cls-72{fill:#fdf1fd;}.cls-73{fill:#e9adb7;}.cls-74{fill:#eb6737;}.cls-75{fill:#8582bb;}.cls-76{fill:#cee4f2;}.cls-77{fill:#eaccb4;}.cls-78{fill:#f5a3b9;}.cls-79{fill:#843346;}.cls-80{fill:#3c2841;}.cls-81{fill:#e79b4d;}.cls-82{fill:#e89b43;}.cls-83{fill:#ffc9aa;}.cls-84{fill:#fce5b9;}.cls-85{fill:#f8cea8;}.cls-86{fill:#e3524f;}.cls-87{fill:#de7a7c;}.cls-88{fill:#803f47;}.cls-89{fill:#38293c;}.cls-90{fill:#f8d2ab;}.cls-91{fill:#ec9b40;}.cls-92{fill:#eb584e;}.cls-93{fill:#df4e55;}.cls-94{fill:#e8a7bd;}.cls-95{fill:#ed974c;}.cls-96{fill:#eb9298;}.cls-97{fill:#f4cea7;}.cls-98{fill:#e8494d;}.cls-99{fill:#ea984c;}.cls-100{fill:#e74d4f;}.cls-101{fill:#ffd6b8;}.cls-102{fill:#cfe2f1;}.cls-103{fill:#f19468;}.cls-104{fill:#bcaf3f;}.cls-105{fill:#f49289;}.cls-106{fill:#f59889;}.cls-107{fill:#009376;}.cls-108{fill:#e9a1b5;}.cls-109{fill:#5056a2;}.cls-110{fill:#f9ccaf;}.cls-111{fill:#6d2f62;}.cls-112{fill:#8d79ae;}.cls-113{fill:#102b32;}.cls-114{fill:#ea7e8d;}.cls-115{fill:#4f293e;}.cls-116{fill:#e25486;}.cls-117{fill:#ab7843;}.cls-118{fill:#95394e;}.cls-119{fill:#fb84ac;}.cls-120{fill:#593e5f;}.cls-121{fill:#f0e3ff;}.cls-122{fill:#b8ab38;}.cls-123{fill:#f6cdaf;}.cls-124{fill:#fce6b7;}.cls-125{fill:#df4c3a;}.cls-126{fill:#d5ebf8;}.cls-127{fill:#f7cb9c;}.cls-128{fill:#e25663;}.cls-129{fill:#d45860;}.cls-130{fill:#932d38;}.cls-131{fill:#fabdc2;}.cls-132{fill:#ae76a3;}.cls-133{fill:#883746;}.cls-134{fill:#faccaa;}.cls-135{fill:#6e3363;}.cls-136{fill:#bfb039;}</style></defs><g id="Layer_7" data-name="Layer 7"><rect class="cls-1" width="1000" height="600"/><path class="cls-2" d="M659,0l34,62q.5,13,1,26v60l-15-18Q665,65,651,0Z"/><polygon class="cls-2" points="696 101 696 120 703 162 694 171 696 182 704 163 704 151 699 121 701 106 696 101"/><polygon class="cls-2" points="692 86 708 112 709 120 706 123 693 127 693 123.47 706 121 707 115 692 98 692 86"/><path class="cls-2" d="M342,0,315,67v34l3,9v62.67L312,199v52l15-19,2-171q11.5-30.49,23-61Z"/><path class="cls-3" d="M444,364l-28-12-43,2-58-83V251l57-24,90,7-5,68-52-6.5L444,327Z"/><path class="cls-3" d="M494,207l-9,91,53,2,93-35-2,13-47,42-4.45,25.38L605,336h27l33,11,28-46V288l23-31,18,3,9-23-8-12H721l-8,6-8-9H693l-8,6-10-3,10-15,8-28-12.6-34.5L672,158c4.36,19.85,1.09,29.18-3,34a65.19,65.19,0,0,0-5,6,50.61,50.61,0,0,0-8,18l-27-3-82,37Z"/><polygon class="cls-2" points="343 9 322 12 318 30 319 47 325 54 323 47.15 320 40 323 23 329 16 344 14 343 9"/><path class="cls-4" d="M347,0,320,68l3,4v64l-5,20-3,57,3,25,11,3,24.87-18L351,124l14-18c97.13-7.12,137.8-4.23,155,1,4.93,1.5,22.5,7.63,42,2,7.89-2.28,9.88-4.69,17-7,9.93-3.23,25-4.71,47,4l23,29,7,33.5V216l24-24.23L693,127l-4-65L656,0Z"/><polygon class="cls-2" points="309 58 300 81 309 101 319 101 319 97 309 97 303 81 312 60 327 48 327 43 309 58"/><polygon class="cls-2" points="317.17 62.36 300 101 298 123 315 156 304 177 298 201 315 226 301 201 306 178 318 164.67 318.6 149 303 118 304 101 315 74 317.17 62.36"/><path class="cls-3" d="M297.85,219.48l-5.12-23.71,8.08-17.54L317,172v2l-14.08,5-8.05,16.13Z"/></g><g id="Layer_4" data-name="Layer 4"><polygon class="cls-4" points="523 154 523 187 538 215 555 230 576 238 602 238 621 230 635 220 649 204 656 181 656 157 645 135 628 115 603 106 574 106 543 123 532 136 523 154"/><polyline class="cls-3" points="561 206 562 228 577 234 599 234 607 205 561 206"/><path class="cls-4" d="M371,117l-11,14-9,20-2,41,15,22,18,14,18,8h30l23-11,17-19,7-21V156l10-7,27,.25L525,159s7-1,3-6l-4-5-11-5-31-1-9,6-14-24-21-18-20-5-27,2Z"/></g><g id="Layer_2" data-name="Layer 2"><path class="cls-5" d="M362,96l-3,16-8,12v27l11-21,9-13V99h52V86h-7l-9.5,9.5Z"/><path class="cls-6" d="M443,98l-20,1H371v18l26.5-12.5h24l14,4L451,104l24-3,17,2,25.5-1.5Q519.25,91.26,521,81l27,40,13.5-7.5c.17-2.5.33-5,.5-7.5l-15.5.5-25-66-16,51h-13v-14h-9l-9,12h-6l1-12h-8Z"/><polygon class="cls-7" points="458 123 458 106 540.5 106 517.95 72.17 517.5 71.8 517.5 101.5 487.5 101.5 482.5 95.5 455.5 95.5 435.5 108.5 457.5 124.5 458 123"/><path class="cls-8" d="M488,144l-31-20,5,7,11,20,10-6Z"/><path class="cls-9" d="M540,105H457v19l29,19,2,1h14v1h15l10-9,6-4,8-5,9-7Z"/><polygon class="cls-10" points="525 154 516.23 145 523.52 135.63 533 129 541 127 530.5 139.5 525 154"/><polygon class="cls-11" points="562 82 561.5 113.13 574 106 602 106 602 97 586.5 97.5 572.5 81.5 562 82"/><polygon class="cls-12" points="660 126 629 88 611 88 602 97 602 106 627 116 645 135 655 157 660 157 660 126"/><path class="cls-13" d="M419,110H395l-20,9-13,15-10,20v29l14,27,17,14,12,6h8l-18-7-16-13-14.5-27.5v-28l9-20,13-14,11-5h31Z"/><path class="cls-14" d="M436,115l-17-5-2,5H387l-10,5-1.42,1.49L403,122l1-2h9v4l3-4h20Z"/><path class="cls-15" d="M450,129l-14-9H416l-3,4v-4h-9l-1,2-16-.3-2,4.3H375l-4,8,57,1,11,6Z"/><polygon class="cls-16" points="458 135 454 127 436 115 436 120 450 129 439 141 456 142 458 135"/><path class="cls-17" d="M388,121H376l-11.8,12.75L361.48,139,395,139l5-3,23,1,8,5,8.73-1L428,135l-56.5-1.5,3.35-7.19L385,126Z"/><polygon class="cls-18" points="458 135 456 142 463 151 463 170 463 174 448 165 445 168 464 181 459 183 453 192 440 193 436 195 409 192 408 187 413 186 399 179 387 187 383 185 382 190 405 199 438 200 461 195 461 208 469 195 469 168 471 168 471 157 458 135"/><polygon class="cls-19" points="366.28 138.99 366 157 387.2 157 398 139 366.28 138.99"/><path class="cls-20" d="M456,142l7,9v19l-13.93-7.75Z"/><path class="cls-21" d="M414,156h24.36q2.31-5.5,4.64-11l-29-6-18,6,2,9,11,2Z"/><polygon class="cls-22" points="423 137 400 136 395 139 385 145 385 155 396 165 412 156 398.5 152.5 396.5 145.5 413.5 139.5 442.5 145.5 437.5 155.5 449.5 162.5 457.5 146.5 455.5 141.5 439.38 141.08 431.4 142 423 137"/><polygon class="cls-23" points="380 178 382 173 398.31 163.7 388 157 366 157 366 171 379 179 380 178"/><path class="cls-24" d="M367,139h-6l-7,15v29l12,21.68V171Q366.5,155,367,139Z"/><path class="cls-25" d="M379,179l5,1-1,5-1,5H372v22.53L369,210l-3-5V171Z"/><polygon class="cls-26" points="464 181 443 166 414 161 379 179 385 182 399 185 435 191 458 184 464 181"/><path class="cls-27" d="M425,172l-6,4,5,8,12-1,5-7-9-3Z"/><path class="cls-28" d="M445.26,171s9.74,7,9.74,8v1s0,1-3,2l-3,1-3.76-6.5Z"/><path class="cls-29" d="M435,171l3-1s5,4,3,6-1,3-1,3l-4,3,2-6-2.67-1.5Z"/><path class="cls-30" d="M416,168c-.33,3.33-.67,6.67-1,10l7,6-4-7v-8l5-1-5-2-8,2Z"/><path class="cls-31" d="M422,172l-2,4,2,7h4l-3-3c-.16-.5-1.4-4.35-.47-4.87A4.54,4.54,0,0,1,424,175h5l-2-5Z"/><polygon class="cls-32" points="428 167 418 165 423 168 418 169 418 177 422 184 421 175 422 172 426 171 428 167"/><path class="cls-33" d="M430,167c-2.31-1.24-2.78-1.1-3-1-1.1.51-1.42,2.7-1,5a10.92,10.92,0,0,0,1,3c.55,1.06,1.32,2.55,3,3a4.81,4.81,0,0,0,4-1c.09-.07,2.25-1.8,2-4C435.79,170.09,433.86,169.06,430,167Z"/><ellipse cx="431" cy="171" rx="1" ry="3"/><path class="cls-34" d="M403,230q-3.5-14.5-7-29l9-2-23-9H372v23l12,10Z"/><path class="cls-9" d="M447,206l-31-1-11-6-11,1,9,30h24l20-10Z"/><path class="cls-35" d="M455,213l6.3-5.48L461,195l-22.37,4.86L404,199l12,8,31-1v14Z"/><path class="cls-36" d="M384,180c-.33,1.67-.67,3.33-1,5l4,2,7-4v-3Z"/><path class="cls-37" d="M414,187l-5-1a2.39,2.39,0,0,0-1,1c-.38.77-.1,1.47,0,3a16.4,16.4,0,0,1,0,2l17,3,9,1,2-1,4-2,13-1,7-9a71.76,71.76,0,0,1-8,0,12.54,12.54,0,0,0-6,1,16.32,16.32,0,0,0-5,4H430Z"/><polygon class="cls-38" points="403 173 402 179 416 185 419 185 409 178 409 174 416 174 416 168 410 168 403 173"/><path class="cls-39" d="M422,184l-6-6v-5h-7v5l7,6,4,1h20l6-3s4,2,4,0v-5h-6l-5,7Z"/><path class="cls-40" d="M445,168v-8l8,5,12,9a5.94,5.94,0,0,1-2,1c-4,1.09-9-2.25-13-8Z"/><path class="cls-40" d="M398.5,167.5l1,3L379,179a17.76,17.76,0,0,1,1-2c4.44-7.65,13.48-10.13,18-11Z"/><path class="cls-41" d="M422,157H412a23.18,23.18,0,0,0-14,9c.33,1.67.67,3.33,1,5l14-8h9Z"/><path class="cls-42" d="M430,157h-8v6a96.09,96.09,0,0,1,23.51,5l.49-7-9-4Z"/><path class="cls-43" d="M460.5,170.5a55.59,55.59,0,0,0-21-13.33,20.2,20.2,0,0,0-2-.67c-2.81-.72-22.37-.49-25,0a9.86,9.86,0,0,0-1.47.37c-6.22,2.11-9.69,5.07-15,9.13-2.11,1.6-5.31,3.91-9.5,6.5"/><path class="cls-40" d="M416,168"/><polygon class="cls-44" points="436 168 442 168 443 177 437 184 439 184 444 177 445.25 177 445 168 439.73 166.53 436 168"/><path class="cls-45" d="M426,183h-3v1h14l6-7-1-9h-6v3l3,1,.5,5.5s-3,4-5,4h-2l-3.5.5Z"/><ellipse class="cls-3" cx="434" cy="169" rx="3" ry="2"/><path class="cls-46" d="M391,168c-1.9.85-3.91,1.85-6,3q-2.7,1.5-5,3c-.17,1.5-.33,3-.5,4.5L390,172C390.33,170.67,390.67,169.33,391,168Z"/><polygon class="cls-46" points="459 171 465 174 463 170 459 168.06 459 171"/><path class="cls-47" d="M395,179c-.85,1-.57.85-3,4.05-2,2.65-3.09,3.83-3,3.95s1.58-1.13,5-4c4.13-3.46,4.9-4,6-4,.67,0,2.71.24,5,4a10,10,0,0,0-4,3c-2.08,2.65-2.27,5.91-2,6s.66-2.53,3-5c1-1,2.7-3,5-3a14.49,14.49,0,0,1,3,1c3.58,1.37,3.87,1.63,4,2,.33,1-.92,1.58-2,4s-1.43,4.82-1,5,2-2,3-4c1.29-2.57,1.55-4.61,3-5a3.1,3.1,0,0,1,1,0c4.8.37,5.8,1.49,8,1,.37-.08.79-.21,1,0,.4.41-.58,1.6-1,3-.92,3.06-.29,6,0,6s.22-1.38,1-4c1.32-4.44,2.59-4.9,3-5a4.69,4.69,0,0,1,1,0,46.25,46.25,0,0,0,6,0c.34-.09.74-.21,1,0,.45.36.11,1.42,0,2-.7,3.59-2.18,5.88-2,6s2.19-1.88,4-5c1.56-2.7,1.48-3.64,3-5a8.77,8.77,0,0,1,4-2c1.05-.24,2.61-.59,3,0,.81,1.25-4.29,5.68-4,6s2.09-1.13,4-3c.43-.42,4.85-4.74,4-6-.43-.63-2-.6-3,0-.65.4-.68.84-1.5,1.5a6.12,6.12,0,0,1-2,1c-5.56,1.84-8.34,2.77-10,3a62.91,62.91,0,0,1-9,0c-6.92-.23-10.43-.36-13-1-3.6-.9-5.5-2-9-4-2.16-1.24-3.63-2.32-4-4s.51-2.55,0-3C401.58,173.69,397.69,176,395,179Z"/><path class="cls-48" d="M456,181c2,.09,2.62-.42,3,0s0,2.16-1,3-3.07,1.1-4,0a2.34,2.34,0,0,1,0-3C454.39,180.71,454.73,181,456,181Z"/><polygon class="cls-49" points="423 158 422.02 161.94 426 162 428 163.7 433 164 434 158 423 158"/><polygon class="cls-49" points="438 159 435 164 441 164 442 162 440.63 159 438 159"/><polygon class="cls-49" points="445 162 443 164 443 166 444 167 445.65 165.94 445 162"/><path class="cls-50" d="M598,139v9h39l-19-9Z"/><path class="cls-51" d="M567,148l12-13s21-14,20,2,0,16,0,16Z"/><path class="cls-52" d="M561.5,119.5l45,1L575,144H553l-3-5H537l10.5-11.5Z"/><polygon class="cls-53" points="612 115 599.54 125.5 591 141 619 141 639 151 645 148 641 137 625 121 612 115"/><polygon class="cls-13" points="567 117 576 112 602 112 612 115 607.85 118.5 567 117"/><path class="cls-54" d="M561,120l6-3h43l-5,5c-10-.43-14.63.23-17,1-.68.22-2.64.93-4,0s-1-2.65-2-3c-1.66-.58-4.17,3.5-5,3-.61-.37,0-3,0-3Z"/><path class="cls-55" d="M567,148h78l6,10v23H629l5-14H616l-18-11H567Z"/><polygon class="cls-56" points="598.72 127 628 127 638 137 634 142 626 141 627 136 590 136 598.72 127"/><polygon class="cls-57" points="567 124 558 135 558 139 590 139 595.41 133 607 133 610 131 623 131 623 127 618 123 608 123 606.5 120.5 603.1 122.5 594.62 122.5 590 126 567 124"/><path class="cls-58" d="M575,144H553l-3-5H536.9L529,159v13h3l1,4,8,2,5-7,21-15Z"/><path class="cls-59" d="M555,148l-19,17,9,7,22-16v-8Z"/><polygon class="cls-60" points="571 156 567 150.5 558 153 558 158 558.43 161 567 156 571 156"/><path class="cls-61" d="M551,176l-3-5,14-10,3,6Z"/><path class="cls-7" d="M533,176v21l8,16,16,13,5,2V208l-5-9-16-10h9l2-4h-9v-5l9-6,1-4-5,1-7,6Z"/><polygon class="cls-62" points="541 180 547 180 554 186 552 191 540 184 541 180"/><path class="cls-26" d="M543,180l20-15q7.41-.93,15-2,7.89-1.11,15.55-2.33l35,18-6,3-14,3-36,6-23-7Z"/><path class="cls-63" d="M603,198H565l-9-9v-5s1-4,4,0l3,4,17,1h10l11-2-1-3,10-4,2-3h3l7,8v5Z"/><path class="cls-64" d="M539,188h17l9,10h38l-6,3H557Z"/><path class="cls-65" d="M623,198H553l9,10,44-1q-3.5,13.5-7,27l15-5,9-6Z"/><path class="cls-66" d="M651,180H624l-24,18,22,1q.5,12,1,24l10-7,12-15Z"/><polygon class="cls-2" points="632 195 616 179 640 179 632 195"/><path class="cls-67" d="M599,183a37.47,37.47,0,0,1-20,4H568c-.65-.34-1.32-.67-2-1-2.4-1.16-4.74-2.15-7-3l4,6-6,.11,8,8.89,16-.11,0-2.89s-1,2-4-2l-3-4h16l12-2Z"/><path class="cls-68" d="M551,183l5,1s1,5,0,5h-4Z"/><path class="cls-69" d="M617,167l11,8v4l7.47-.13L635,166H612Z"/><path class="cls-27" d="M582.55,170.67l6,4-5,8-12-1-5-7,9-3Z"/><path class="cls-28" d="M562.3,170.67s-9.75,7-9.75,8v1s0,1,3,2l3,1,3.76-6.5Z"/><path class="cls-29" d="M574,170l-4.45-.33s-5,4-3,6,1,3,1,3A8.12,8.12,0,0,0,570,181a8.59,8.59,0,0,0,6,1l-5-5,3-2Z"/><path class="cls-30" d="M591.55,167.67c.34,3.33.67,6.67,1,10l-7,6,4-7v-8l-5-1,5-2,8,2Z"/><path class="cls-31" d="M585.55,171.67l2,4-2,7h-4l3-3c.17-.5,1.4-4.35.47-4.87a4.54,4.54,0,0,0-1.47-.13h-5c.67-1.67,1.34-3.33,2-5Z"/><polygon class="cls-32" points="579.55 166.67 589.55 164.67 584.55 167.67 589.55 168.67 589.55 176.67 585.55 183.67 586.55 174.67 585.55 171.67 581.55 170.67 579.55 166.67"/><path class="cls-70" d="M622,172l-13-8-.88,4.06L628,179Z"/><path class="cls-71" d="M560,161l10-4h7c.33,2,.67,4,1,6l-15,2Z"/><polygon class="cls-72" points="577 157 577 163.11 594 161 609 168.5 610 165 597 157 577 157"/><polygon class="cls-38" points="604.55 172.67 605.55 178.67 591.55 184.67 588.55 184.67 598.55 177.67 598.55 173.67 591.55 173.67 591.55 167.67 597.55 167.67 604.55 172.67"/><path class="cls-39" d="M585.55,183.67l6-6v-5h7v5l-7,6-4,1h-20l-6-3s-4,2-4,0v-5h6l5,7Z"/><path class="cls-43" d="M547.5,170.5c3.41-2.83,6.47-5.16,9-7,5.15-3.74,8-5.4,11.52-6.66a18.19,18.19,0,0,1,2-.67c2.81-.72,22.37-.49,25,0a9.86,9.86,0,0,1,1.47.37c6.22,2.11,9.69,5.07,15,9.13,2.11,1.6,5.31,3.91,9.5,6.5"/><path class="cls-45" d="M581.13,182.45h3v1h-14l-6-7,1-9L577,167l-2,4-6.87.45-.5,5.5s3,4,5,4h2l3.5.5Z"/><path class="cls-33" d="M577.55,166.67c2.32-1.23,2.78-1.1,3-1,1.1.51,1.42,2.71,1,5a10.6,10.6,0,0,1-1,3,5,5,0,0,1-3,3,4.82,4.82,0,0,1-4-1c-.09-.07-2.24-1.79-2-4C571.77,169.76,573.69,168.73,577.55,166.67Z"/><ellipse cx="577" cy="171" rx="1" ry="3"/><polygon class="cls-44" points="571.55 167.67 565.55 167.67 564.55 176.67 570.55 183.67 568.55 183.67 563.55 176.67 562.3 176.67 562.55 167.67 567.82 166.19 571.55 167.67"/><path class="cls-46" d="M613,165a63,63,0,0,1,16,11v3l-11.45-7.33Z"/><path class="cls-46" d="M556,165l-15,13,2-6,12-9Z"/><path class="cls-47" d="M612.55,178.67c.86,1,.57.85,3,4.05,2,2.65,3.09,3.83,3,3.95s-1.57-1.13-5-4c-4.13-3.46-4.89-4-6-4-.67,0-2.71.24-5,4a10,10,0,0,1,4,3c2.08,2.65,2.27,5.91,2,6s-.65-2.53-3-5c-1-1-2.7-3-5-3a15.21,15.21,0,0,0-3,1c-3.58,1.37-3.87,1.63-4,2-.33,1,.93,1.58,2,4s1.43,4.82,1,5-2-2-3-4c-1.28-2.57-1.55-4.61-3-5a3.1,3.1,0,0,0-1,0c-4.8.37-5.8,1.49-8,1-.37-.08-.79-.21-1,0-.4.41.58,1.6,1,3,.92,3.06.29,6,0,6s-.21-1.38-1-4c-1.32-4.44-2.59-4.9-3-5a4.63,4.63,0,0,0-1,0,46.31,46.31,0,0,1-6,0c-.34-.08-.73-.21-1,0-.45.36-.11,1.42,0,2,.7,3.59,2.18,5.88,2,6s-2.19-1.87-4-5c-1.56-2.7-1.48-3.64-3-5a8.68,8.68,0,0,0-4-2c-1-.24-2.61-.59-3,0-.81,1.25,4.29,5.68,4,6s-2.08-1.13-4-3c-.42-.42-4.85-4.74-4-6,.43-.63,2-.6,3,0,.65.4.68.84,1.5,1.5a5.75,5.75,0,0,0,2,1c5.57,1.84,8.35,2.77,10,3a62.91,62.91,0,0,0,9,0c6.92-.23,10.44-.36,13-1,3.6-.9,5.51-2,9-4,2.16-1.24,3.63-2.32,4-4s-.51-2.55,0-3C606,173.36,609.87,175.65,612.55,178.67Z"/><path class="cls-48" d="M550.55,181.67c-2,.09-2.62-.42-3,0s0,2.16,1,3,3.08,1.1,4,0a2.31,2.31,0,0,0,0-3C552.17,181.38,551.83,181.62,550.55,181.67Z"/><path class="cls-39" d="M548,183"/><ellipse class="cls-3" cx="581" cy="169" rx="3" ry="2"/></g><g id="Layer_6" data-name="Layer 6"><path class="cls-3" d="M642.33,211.34,637,217.71l5,2.29s7-4,4-6A31.32,31.32,0,0,1,642.33,211.34Z"/><polygon class="cls-73" points="638.55 215.95 643 217 643 229 629 224.29 635 220 638.55 215.95"/><path class="cls-74" d="M659,163v42h3v15l-13-5H639l10-11q3.5-12,7-24V162.75Z"/><path class="cls-75" d="M649,246H617v11l9,10-22,7-3,2h25l13-9h10Z"/><polygon class="cls-76" points="619 239 621 246 643 246 648 240 619 239"/><polygon class="cls-77" points="618 257 618 264 605.55 273.51 626 267 618 257"/><polygon class="cls-78" points="621 246 624 262 635 262 644 246 621 246"/><polygon class="cls-78" points="649 254 641 264 649 263.75 649 254"/><path class="cls-78" d="M649,267H637l-58,49-18,31v5l25-8q.5-13,1-26Z"/><path class="cls-79" d="M672,156l9-15h8l7,6v32l-12,49-12-4,15-21-6-44s-7,12-7,15v8l5,5v21l-14,14-3-2v-5.5l2,1.5,7-7V198h-7l7-16Z"/><path class="cls-80" d="M682,158.14c.41-.21,4.75-2.39,8,0a7.89,7.89,0,0,1,2,2.29,8.65,8.65,0,0,1,1,4.57V149h-6l-7,6.86Z"/><path class="cls-81" d="M675,161l8-20h6l7,6v33.83l-7.43,28.6L688,182l5-5V150s-5-1-6,0c-.57.57-4.42,4.09-7.61,7Z"/><polyline class="cls-82" points="745.93 284 756 292 756 314 743 337 720 360 689 378 689 374 702 345 725 296 746.62 284"/><path class="cls-83" d="M714,256l16,2-2,11c-1.46,4.09-9.41,25.13-28,30a31,31,0,0,1-8,1c-.33-3.33-.67-6.67-1-10Z"/><path class="cls-84" d="M664,346l28-46,4.74-1L722,271l6.73-6c.42-2.33.85-4.67,1.27-7l10-20,10,1,5,14q-18.19,20.91-37,42-24.09,27-48,53Z"/><polygon class="cls-85" points="669 349 709.41 301.88 726.12 283.4 755 253 756 272 730 303 727 332 703 353 719 353 717 359 689 374 669 349"/><polygon class="cls-86" points="689 391 689 378 720 360 743 337 756 313 750 338 734 357 689 391"/></g><g id="Layer_5" data-name="Layer 5"><path class="cls-87" d="M335,153l-6-12-7,1-4,14v35q5,16,10,32l10,10,7.56-4.91L358,220c-13.16-17.57-20.06-32.82-21-39a97.55,97.55,0,0,1-1-12c0-.64,0-1.08,0-5v-8C335.67,155,335.33,154,335,153Z"/><polygon class="cls-88" points="328 209 344.38 228.85 342.62 230 326 209 318 173 318 161 321 166 323 160 336 160 336.14 172.5 327 165 328 209"/><path class="cls-88" d="M337,181l-6,5,1,17,9,17,8,5.85L359,220l10-4-6-3.47L351,192l3,25-3-4s0,4-2,3l-2-1-8-10,6-6-7-14.25C337.67,183.5,337.33,182.25,337,181Z"/><path class="cls-89" d="M321,166l-2.4-4,.4-11h5l2,2,5,7h-8C322.33,162,321.67,164,321,166Z"/><path class="cls-90" d="M320,250l12-14,15-10,10-6,12-4,13,12,12,4H375Z"/><path class="cls-91" d="M366,227h6l-11-8h-3l-11,7,15,4,.78,6,4.22-2C366.67,231.67,366.33,229.33,366,227Z"/><polygon class="cls-92" points="379 232 370.26 225.85 365 226 365 235.27 374.19 232.4 379 232"/><polygon class="cls-93" points="395 249 360 249 375 263 369 268 402 294 395 249"/><polygon class="cls-94" points="383 265 391 249 367 249 383 265"/><polygon class="cls-95" points="388 261 388 278 391 280 399.82 280 395.16 250 388 261"/><polyline class="cls-96" points="414.7 289.43 405 290 399 279 402 294 416 296 414.7 289.43"/><path class="cls-97" d="M282,301h18l.75-36L290,272l7-9-11,6-10,12v13Z"/><path class="cls-98" d="M318,251.39,300,262v16l23,33V290l-10-17h-7v-9Z"/><path class="cls-99" d="M368,356l-45-66v21l-23-33v23H282l55,80,21-20Z"/><polygon class="cls-100" points="276 288 269 300 271 309 291 336 275 332 271 322 264 326 261 339 268 349 288 358 337 406 337 380 276 288"/><path class="cls-101" d="M271,316l-7,10,7-4,4,10,16,4-15.95-21.54Z"/><path class="cls-102" d="M320,249v22l34,51h15l10,30-11,4-56-81h-6V264Z"/><path class="cls-103" d="M329,240l-11-2-30,35,12-6v-5l20.79-12.26Z"/><path class="cls-104" d="M444,327v37l19,14V356Z"/></g><g id="Layer_3" data-name="Layer 3"><path class="cls-105" d="M479,241l-2-21,7-7V154l12,8v85h24l-16,9H494Z"/><path class="cls-106" d="M517,194l-1-33-5-8H488l-4,4,12,5h15q-.5,11.5-1,23Z"/><polygon class="cls-107" points="477 156 477 168 484 168 484 157 489 153 511 153 515 148 486 148 477 156"/><path class="cls-108" d="M572,244l-24-9.62L520,196s3-5,0-5c-2,0-3.54.44-3.78,1.32-.15.58.69.82.78,1.68a2.61,2.61,0,0,1-1,2l3,30v21h8l5,9,3-16,6-1-1,18,13,3,4-16Z"/><path class="cls-109" d="M517,194q-.5-16.5-1-33l-5-8,4-5,8,6v42Z"/><path class="cls-110" d="M523,228l-3-5V199l-11-17q.5,32.5,1,65h10l3-3Z"/><path class="cls-7" d="M510,230H496V162h15Z"/><path class="cls-111" d="M477,168v17q-2,6-4,12l7-1V168Z"/><path class="cls-112" d="M484,168h-4v26.5l-6,.5-6,13-7,6v11l8-6,11,1,6-6Q485,191,484,168Z"/><path class="cls-113" d="M513,256l-3,4,15.09-1.21L523,256Z"/><path class="cls-114" d="M520,247h7l5,6,7-3-6-11h8s8,9,0,17c-1.17,1.17-4.36,6.86-5.55,6.35-.15-.07-.15-.19-.45-.35a2.6,2.6,0,0,0-3.25,1.1,1.45,1.45,0,0,0,.25-.1l-12-11.34-9,.34Z"/><path class="cls-115" d="M525,258H511l-3,5,6.79.1L517,261l7,6,5,2,5.29-5.11L529,264Z"/><path class="cls-116" d="M496,256h7l10-5,12,1,4,8h8s1,4-4,4h-4l-6-8H513l-8,11h-9l-8-11H475l2,6-5,3-7-9V244l10-10-1.5-1,6.5-13v21Z"/><polygon class="cls-117" points="461 244 461 242.45 461 225 471 216 473.5 220 461 244"/><path class="cls-118" d="M473,235l-6-2-2,5.7-1-2.7q3.5-8.5,7-17l9,1Z"/><path class="cls-119" d="M465,254q-.5-8.5-1-17l3-4h9l-10,10Q465.51,248.51,465,254Z"/><polygon class="cls-120" points="523 177 520 177.13 520 196 547 234 560 239 576 238 555 230 538 215 524 189 523 177"/><polygon class="cls-121" points="523.75 186 522 186 522 194 537 218 550 229 555 230 538 215 524 189 523.75 186"/><path class="cls-122" d="M589,250.37l2-6.37h10l.34,6.37L590,275a28.6,28.6,0,0,1,0-7,30.07,30.07,0,0,1,6-14.45Z"/><polygon class="cls-123" points="596 253 570.75 243.5 557 244 553 260 579 268 579 284 591 279 591 268 596 253"/><polygon class="cls-124" points="544 298 553 260 581 268 581 283.17 544 298"/><path class="cls-125" d="M558,238l15,7,28-1v7l8-16-7,3Z"/><path class="cls-126" d="M591,279v-7l10-21v23Z"/><path class="cls-127" d="M510,276H495s-3,9-11,9h-8l-18.06-14.47q-.48,15.74-.94,31.47l41-11h11Z"/><path class="cls-128" d="M457,302c0-.47.71-.63,14-6,7.5-3,8.57-3.51,11-4,4-.81,9.75-2,15,1,2.1,1.19,6.56,4.43,6,7C501.35,307.53,457.33,305.53,457,302Z"/><path class="cls-129" d="M537,300c.26-2.89-6.93-5.6-8-6-6.18-2.33-11.6-1.16-17,0-5.77,1.24-7.86,2.87-9,4-.64.64-3.84,3.79-3,6,1.23,3.23,10.37,2.47,16,2C520.19,305.65,536.62,304.28,537,300Z"/><path class="cls-130" d="M457,302l13-5.6,9,.6,2,3h25v2l27-1v-4.6l5,3.6s-10,5-25,5H498a176.57,176.57,0,0,1-28-1C465.42,303.47,461.09,302.79,457,302Z"/><polygon class="cls-131" points="496 296 479 296 482 301 498 301 496 296"/><path class="cls-131" d="M516,298v3.63s17,.37,16-1.63l-1-2a3.1,3.1,0,0,0-4-2c-1.57.52-1.88-.1-3,0a11.64,11.64,0,0,0-2.86.71A38.44,38.44,0,0,1,516,298Z"/><path class="cls-131" d="M513,298l1,5s-7,0-5-2l2-2Z"/><polygon class="cls-132" points="507 278 499 272 462 263 462 242.79 457 249 458 273 474 286 489 287 499 278 502 278 502 286 499 289 507 289 507 278"/><path class="cls-113" d="M477,262c-.67-2-1.33-4-2-6h13l-1,4-3,2Z"/><path class="cls-115" d="M498,273l-11-13c.33-1.33.67-2.67,1-4l8,11h9l4-5.5,7,.5-11,10,2,3v3h-5Z"/><path class="cls-115" d="M464,237q.5,8.5,1,17l7,9.89,5-2.72,8-.17-12,8-12-16v-9Z"/><polygon class="cls-133" points="498 273 487 260 484 261.02 473 269 461 251.05 461 264 474 276 498 276 498 273"/><polygon class="cls-134" points="458 250 426 249 441 300 426 297 414 249 461 225 461 244 458 250"/><path class="cls-135" d="M461,214l-10,10-23,11H399l6,6,24.5.09L461,226Z"/><path class="cls-136" d="M416,296l-11-55h26l-17,8q8.5,26,17,52Z"/><polygon class="cls-3" points="389.25 232 394 232 399.82 235 405 241 414.7 289.43 389.25 232"/></g><g id="Layer_8" data-name="Layer 8"><path class="cls-4" d="M337,381v31l10,5-5,11-13,64,9,12-18,11v5l-42,25-49,55H796l-31-64-42-33-32-6-16-33-9-37,13-10,10-26V374l-20-26-33-12H605l-42.5,15.4v-7l17.56-28.95L626,276H601l-38.5,14.58-21.12,8.15-13.6,4.62L507,305l-34-.54-22.38-3.29L402,294l42,33,18,30,1,21-18-15-28-12-39.37,1.5L368,356l-12,6Z"/></g></svg>